<svg width="463" height="44" viewBox="0 0 463 44" fill="none" xmlns="http://www.w3.org/2000/svg">
<mask id="mask0_588_1722" style="mask-type:alpha" maskUnits="userSpaceOnUse" x="0" y="0" width="463" height="44">
<path d="M0 0H463V44H0V0Z" fill="#F0F4F7"/>
</mask>
<g mask="url(#mask0_588_1722)">
<g opacity="0.25">
<path opacity="0.25" d="M460.464 17.2546C460.615 17.1838 460.783 17.1596 460.947 17.1853C461.111 17.2109 461.263 17.2852 461.385 17.3985C461.506 17.5118 461.59 17.6589 461.627 17.8208C461.664 17.9827 461.651 18.1519 461.591 18.3065C461.531 18.4611 461.425 18.5941 461.288 18.6882C461.152 18.7822 460.99 18.8331 460.824 18.8341C460.658 18.8352 460.495 18.7864 460.357 18.6941C460.219 18.6018 460.112 18.4702 460.05 18.3163C459.97 18.1198 459.969 17.9004 460.046 17.7029C460.123 17.5055 460.273 17.3451 460.464 17.2546Z" fill="#C4DFD5"/>
<path opacity="0.25" d="M460.78 18.0011L520.449 -29.2724L530.307 22.1566L460.78 18.0011Z" stroke="#C4DFD5" stroke-width="0.25" stroke-miterlimit="10"/>
<path opacity="0.25" d="M460.78 18.0012L508.58 34.3451L530.307 22.1566" stroke="#C4DFD5" stroke-width="0.25" stroke-miterlimit="10"/>
</g>
<g opacity="0.25">
<path opacity="0.25" d="M320.967 33.4494C321.007 33.5777 321.008 33.7151 320.97 33.8441C320.932 33.973 320.856 34.0876 320.752 34.1732C320.648 34.2588 320.521 34.3115 320.387 34.3246C320.254 34.3377 320.119 34.3105 320.001 34.2466C319.882 34.1827 319.786 34.085 319.723 33.9659C319.661 33.8468 319.635 33.7117 319.65 33.578C319.664 33.4443 319.719 33.3181 319.806 33.2154C319.892 33.1127 320.008 33.0382 320.137 33.0015C320.307 32.9535 320.488 32.9734 320.643 33.057C320.798 33.1407 320.914 33.2814 320.967 33.4494Z" fill="#C4DFD5"/>
<path opacity="0.25" d="M347.413 66.212L320.32 33.6484L295.208 103.86" stroke="#C4DFD5" stroke-width="0.25" stroke-miterlimit="10"/>
</g>
<g opacity="0.51">
<path opacity="0.51" d="M416.442 22.1815C416.305 22.3174 416.132 22.4099 415.943 22.4471C415.754 22.4844 415.558 22.4649 415.38 22.391C415.202 22.3172 415.05 22.1922 414.944 22.0321C414.837 21.8719 414.78 21.6836 414.78 21.491C414.78 21.2984 414.837 21.1101 414.944 20.95C415.05 20.7898 415.202 20.6649 415.38 20.591C415.558 20.5171 415.754 20.4976 415.943 20.5349C416.132 20.5722 416.305 20.6646 416.442 20.8005C416.533 20.891 416.605 20.9987 416.654 21.1172C416.703 21.2357 416.729 21.3627 416.729 21.491C416.729 21.6193 416.703 21.7464 416.654 21.8649C416.605 21.9834 416.533 22.091 416.442 22.1815Z" fill="#C4DFD5"/>
<path opacity="0.51" d="M415.758 21.4807L466.477 -13.1232L483.987 24.7694L415.758 21.4807Z" stroke="#C4DFD5" stroke-width="0.25" stroke-miterlimit="10"/>
<path opacity="0.51" d="M553.626 115.534L573.976 150.005L491.477 104.175L443.096 70.2347L483.987 24.7693" stroke="#C4DFD5" stroke-width="0.25" stroke-miterlimit="10"/>
<path opacity="0.51" d="M375.518 -16.2046L415.301 21.4392" stroke="#C4DFD5" stroke-width="0.25" stroke-miterlimit="10"/>
</g>
<path d="M476.572 28.8419L452.788 -19.1408L538.369 6.83288" stroke="#C4DFD5" stroke-width="0.25" stroke-miterlimit="10"/>
<path d="M476.846 28.8419L428.179 58.1665L452.788 -19.1408L528.047 -40.0591L539.049 6.42233" stroke="#C4DFD5" stroke-width="0.25" stroke-miterlimit="10"/>
<path d="M381.038 12.8877C380.958 13.0318 380.837 13.1489 380.691 13.2241C380.544 13.2993 380.379 13.3292 380.215 13.31C380.052 13.2907 379.897 13.2232 379.772 13.1161C379.647 13.0089 379.557 12.8669 379.513 12.7082C379.469 12.5495 379.473 12.3813 379.525 12.225C379.577 12.0687 379.674 11.9313 379.804 11.8305C379.934 11.7296 380.092 11.6698 380.256 11.6587C380.42 11.6476 380.584 11.6856 380.727 11.7679C380.915 11.8766 381.053 12.0548 381.111 12.2642C381.169 12.4736 381.143 12.6975 381.038 12.8877Z" fill="#C4DFD5"/>
<path d="M302.852 36.2777L365.457 47.276L309.682 -2.91296" stroke="#C4DFD5" stroke-width="0.25" stroke-miterlimit="10"/>
<path d="M253.305 96.1877L302.603 36.6469L336.995 76.3933L253.305 96.1877Z" stroke="#C4DFD5" stroke-width="0.25" stroke-miterlimit="10"/>
<path d="M434.246 50.1459L380.325 12.4813L365.457 47.276" stroke="#C4DFD5" stroke-width="0.25" stroke-miterlimit="10"/>
<ellipse opacity="0.5" cx="394.453" cy="0.453464" rx="15" ry="15" transform="rotate(-164.552 394.453 0.453464)" fill="url(#paint0_linear_588_1722)"/>
<ellipse opacity="0.5" cx="360.846" cy="33.8463" rx="5.65654" ry="5.65654" transform="rotate(-33.7656 360.846 33.8463)" fill="url(#paint1_linear_588_1722)"/>
<circle opacity="0.5" cx="406.5" cy="40.5" r="10.5" fill="url(#paint2_linear_588_1722)"/>
</g>
<defs>
<linearGradient id="paint0_linear_588_1722" x1="394.453" y1="-14.5465" x2="394.453" y2="15.4535" gradientUnits="userSpaceOnUse">
<stop stop-color="#D7E3E7"/>
<stop offset="1" stop-color="#F0F4F7"/>
</linearGradient>
<linearGradient id="paint1_linear_588_1722" x1="360.846" y1="28.1897" x2="360.846" y2="39.5028" gradientUnits="userSpaceOnUse">
<stop stop-color="#D7E3E7"/>
<stop offset="1" stop-color="#F0F4F7"/>
</linearGradient>
<linearGradient id="paint2_linear_588_1722" x1="406.5" y1="30" x2="406.5" y2="51" gradientUnits="userSpaceOnUse">
<stop stop-color="#D7E3E7"/>
<stop offset="1" stop-color="#F0F4F7"/>
</linearGradient>
</defs>
</svg>
