<svg width="1600" height="65" viewBox="0 0 1600 65" fill="none" xmlns="http://www.w3.org/2000/svg">
<mask id="mask0_387_6265" style="mask-type:alpha" maskUnits="userSpaceOnUse" x="0" y="0" width="1600" height="65">
<rect width="1600" height="65" fill="#F0F4F7"/>
</mask>
<g mask="url(#mask0_387_6265)">
<g opacity="0.09">
<path opacity="0.09" d="M513.821 9.2864C513.847 9.55445 513.791 9.82394 513.662 10.0601C513.533 10.2963 513.336 10.4884 513.096 10.6117C512.857 10.7349 512.586 10.7837 512.319 10.7517C512.051 10.7197 511.8 10.6084 511.596 10.4322C511.393 10.2559 511.247 10.0227 511.177 9.76271C511.107 9.50268 511.117 9.22771 511.204 8.97319C511.292 8.71866 511.454 8.49624 511.669 8.33458C511.885 8.17292 512.143 8.0794 512.412 8.0661C512.759 8.04895 513.099 8.16625 513.362 8.39357C513.624 8.62089 513.789 8.94069 513.821 9.2864Z" fill="#C4DFD5"/>
<path opacity="0.09" d="M661.7 15.1115C661.713 15.2845 661.674 15.4574 661.589 15.6083C661.504 15.7593 661.375 15.8815 661.22 15.9595C661.065 16.0375 660.891 16.0678 660.719 16.0465C660.547 16.0253 660.385 15.9535 660.253 15.8401C660.122 15.7268 660.027 15.577 659.981 15.4099C659.935 15.2427 659.94 15.0656 659.994 14.9009C660.049 14.7363 660.151 14.5916 660.288 14.485C660.425 14.3785 660.59 14.315 660.763 14.3025C660.994 14.2876 661.222 14.364 661.397 14.5153C661.572 14.6666 661.681 14.8808 661.7 15.1115Z" fill="#C4DFD5"/>
<path opacity="0.09" d="M588.179 0.798322C588.236 0.991467 588.248 1.1948 588.216 1.39339C588.183 1.59198 588.107 1.78079 587.992 1.94601C587.877 2.11122 587.727 2.24864 587.552 2.34819C587.377 2.44773 587.182 2.50687 586.981 2.52128C586.781 2.53569 586.579 2.50499 586.392 2.43145C586.205 2.35791 586.036 2.2434 585.899 2.09629C585.762 1.94917 585.659 1.77321 585.599 1.58128C585.538 1.38935 585.521 1.18632 585.55 0.987096C585.593 0.681923 585.739 0.400782 585.965 0.190498C586.19 -0.0197854 586.481 -0.146523 586.788 -0.168595C587.096 -0.190667 587.401 -0.106746 587.654 0.069189C587.908 0.245124 588.093 0.502458 588.179 0.798322Z" fill="#C4DFD5"/>
<path opacity="0.09" d="M512.507 9.38081L578.16 -120.84L595.372 -81.8921L512.507 9.38081Z" stroke="#C4DFD5" stroke-width="0.25" stroke-miterlimit="10"/>
<path opacity="0.09" d="M586.864 0.892665L595.373 -81.4134L649.605 -66.4664L586.864 0.892665Z" stroke="#C4DFD5" stroke-width="0.25" stroke-miterlimit="10"/>
<path opacity="0.09" d="M803.612 -59.1784L856.793 -50.1306L737.851 -5.09422L660.824 15.1789L649.605 -66.4664" stroke="#C4DFD5" stroke-width="0.25" stroke-miterlimit="10"/>
<path opacity="0.09" d="M512.507 9.38083L513.282 -92.9421L577.378 -120.49" stroke="#C4DFD5" stroke-width="0.25" stroke-miterlimit="10"/>
<path opacity="0.09" d="M513.066 9.52243L586.419 1.33093" stroke="#C4DFD5" stroke-width="0.25" stroke-miterlimit="10"/>
</g>
<g opacity="0.25">
<path opacity="0.25" d="M576.03 15.4485C576.137 15.4043 576.25 15.3813 576.366 15.3811C576.481 15.3809 576.595 15.4033 576.701 15.4471C576.808 15.491 576.904 15.5553 576.986 15.6365C577.067 15.7177 577.132 15.8142 577.176 15.9205C577.221 16.0267 577.244 16.1406 577.244 16.2557C577.244 16.3708 577.222 16.4849 577.178 16.5913C577.134 16.6977 577.07 16.7945 576.988 16.876C576.907 16.9576 576.811 17.0223 576.705 17.0666C576.49 17.156 576.249 17.1565 576.034 17.068C575.819 16.9795 575.648 16.8092 575.558 16.5947C575.469 16.3801 575.468 16.1388 575.557 15.9239C575.645 15.7089 575.816 15.5379 576.03 15.4485Z" fill="#C4DFD5"/>
<path opacity="0.25" d="M624.991 50.7968C625.191 50.7122 625.412 50.6889 625.626 50.73C625.839 50.7711 626.036 50.8746 626.191 51.0275C626.345 51.1804 626.451 51.3758 626.495 51.5889C626.538 51.8021 626.518 52.0233 626.436 52.2247C626.353 52.4261 626.213 52.5985 626.033 52.7201C625.852 52.8418 625.64 52.9072 625.423 52.9081C625.205 52.9089 624.992 52.8453 624.811 52.725C624.63 52.6048 624.488 52.4335 624.404 52.2328C624.348 52.1 624.318 51.9575 624.317 51.8132C624.316 51.669 624.344 51.526 624.398 51.3925C624.453 51.259 624.533 51.1377 624.635 51.0354C624.737 50.9331 624.858 50.852 624.991 50.7968Z" fill="#C4DFD5"/>
<path opacity="0.25" d="M576.368 16.2576L538.929 59.6692L528.971 -35.541" stroke="#C4DFD5" stroke-width="0.25" stroke-miterlimit="10"/>
<path opacity="0.25" d="M673.425 -16.0702L576.253 15.9879L529.619 -35.8916" stroke="#C4DFD5" stroke-width="0.25" stroke-miterlimit="10"/>
<path opacity="0.25" d="M576.253 15.9879L625.415 51.808L538.929 59.6691L422.461 -13.2925L528.283 -36.0467" stroke="#C4DFD5" stroke-width="0.25" stroke-miterlimit="10"/>
</g>
<g opacity="0.25">
<path opacity="0.25" d="M764.792 6.15141C764.894 6.48438 764.896 6.8403 764.796 7.17407C764.696 7.50783 764.499 7.80443 764.23 8.02626C763.962 8.24808 763.633 8.38516 763.287 8.42012C762.94 8.45509 762.591 8.38635 762.283 8.22264C761.976 8.05893 761.724 7.80762 761.559 7.50053C761.394 7.19344 761.325 6.84441 761.359 6.49767C761.393 6.15092 761.529 5.82207 761.75 5.55279C761.971 5.2835 762.267 5.08593 762.601 4.98506C762.821 4.91746 763.053 4.894 763.282 4.91606C763.512 4.93811 763.735 5.00525 763.938 5.1136C764.142 5.22194 764.322 5.36937 764.468 5.54746C764.615 5.72554 764.725 5.93079 764.792 6.15141Z" fill="#C4DFD5"/>
<path opacity="0.25" d="M845.277 -0.26688C845.405 0.148985 845.407 0.593542 845.283 1.01045C845.158 1.42736 844.912 1.79784 844.577 2.07497C844.241 2.35211 843.831 2.52342 843.398 2.56719C842.965 2.61095 842.529 2.52521 842.145 2.32082C841.76 2.11643 841.446 1.80258 841.24 1.41907C841.034 1.03555 840.947 0.599631 840.989 0.16653C841.032 -0.266571 841.202 -0.677361 841.478 -1.01377C841.754 -1.35018 842.124 -1.59706 842.54 -1.72315C843.096 -1.88966 843.695 -1.83012 844.208 -1.55748C844.72 -1.28484 845.105 -0.821089 845.277 -0.26688Z" fill="#C4DFD5"/>
<path opacity="0.25" d="M789.751 40.4749C789.835 40.7308 789.841 41.0063 789.768 41.2657C789.694 41.5251 789.545 41.7565 789.339 41.9301C789.132 42.1037 788.879 42.2114 788.611 42.2395C788.343 42.2675 788.072 42.2145 787.834 42.0873C787.597 41.9602 787.403 41.7646 787.277 41.526C787.152 41.2874 787.1 41.0167 787.13 40.7487C787.16 40.4808 787.27 40.228 787.445 40.0229C787.62 39.8179 787.852 39.67 788.112 39.5984C788.277 39.5476 788.451 39.53 788.623 39.5466C788.795 39.5632 788.962 39.6137 789.114 39.6952C789.266 39.7767 789.401 39.8875 789.51 40.0213C789.62 40.1552 789.701 40.3093 789.751 40.4749Z" fill="#C4DFD5"/>
<path opacity="0.25" d="M1051.32 13.8912C1051.37 14.057 1051.37 14.2337 1051.32 14.399C1051.27 14.5644 1051.17 14.711 1051.03 14.8205C1050.9 14.93 1050.74 14.9974 1050.56 15.0143C1050.39 15.0311 1050.22 14.9966 1050.07 14.9152C1049.91 14.8337 1049.79 14.7089 1049.71 14.5565C1049.63 14.4041 1049.59 14.2309 1049.61 14.0588C1049.62 13.8866 1049.69 13.7231 1049.8 13.5889C1049.91 13.4547 1050.05 13.3558 1050.22 13.3047C1050.33 13.2704 1050.45 13.2585 1050.56 13.2695C1050.68 13.2805 1050.79 13.3142 1050.89 13.3687C1050.99 13.4233 1051.08 13.4975 1051.16 13.5872C1051.23 13.6769 1051.29 13.7802 1051.32 13.8912Z" fill="#C4DFD5"/>
<path opacity="0.25" d="M706.528 48.0191C706.561 48.1293 706.573 48.2451 706.562 48.3598C706.551 48.4745 706.517 48.586 706.463 48.6877C706.409 48.7894 706.335 48.8795 706.246 48.9528C706.157 49.026 706.055 49.081 705.944 49.1147C705.834 49.1483 705.718 49.1599 705.604 49.1488C705.489 49.1377 705.378 49.1041 705.276 49.05C705.174 48.9958 705.084 48.9222 705.011 48.8332C704.937 48.7443 704.882 48.6417 704.849 48.5315C704.781 48.3089 704.804 48.0684 704.913 47.8629C705.023 47.6575 705.209 47.5039 705.432 47.4359C705.655 47.368 705.895 47.3913 706.101 47.5006C706.306 47.61 706.46 47.7965 706.528 48.0191Z" fill="#C4DFD5"/>
<path opacity="0.25" d="M667.458 6.21885C667.522 6.42767 667.522 6.65087 667.459 6.85996C667.396 7.06906 667.272 7.25458 667.103 7.39279C666.933 7.53101 666.727 7.61566 666.509 7.63595C666.292 7.65624 666.073 7.61124 665.881 7.50669C665.69 7.40215 665.533 7.24282 665.432 7.04903C665.332 6.85524 665.291 6.63578 665.315 6.41869C665.34 6.20161 665.428 5.99674 665.57 5.83025C665.711 5.66376 665.899 5.54321 666.109 5.48398C666.386 5.40617 666.681 5.43949 666.933 5.57681C667.185 5.71413 667.373 5.94456 667.458 6.21885Z" fill="#C4DFD5"/>
<path opacity="0.25" d="M846.086 43.5492C846.171 43.8049 846.176 44.08 846.103 44.339C846.029 44.598 845.88 44.8291 845.674 45.0025C845.468 45.1759 845.215 45.2837 844.947 45.3119C844.679 45.3402 844.409 45.2876 844.172 45.161C843.934 45.0344 843.74 44.8395 843.614 44.6016C843.488 44.3636 843.436 44.0933 843.465 43.8256C843.494 43.558 843.603 43.3051 843.777 43.0996C843.951 42.8942 844.182 42.7455 844.441 42.6727C844.776 42.5789 845.133 42.6177 845.44 42.7809C845.746 42.9442 845.978 43.2194 846.086 43.5492Z" fill="#C4DFD5"/>
<path opacity="0.25" d="M997.868 16.6757C997.953 16.9314 997.958 17.2065 997.885 17.4656C997.811 17.7246 997.662 17.9557 997.456 18.1291C997.25 18.3024 996.997 18.4102 996.729 18.4384C996.461 18.4667 996.191 18.4141 995.954 18.2875C995.716 18.1609 995.522 17.9661 995.396 17.7281C995.27 17.4901 995.218 17.2198 995.247 16.9522C995.276 16.6845 995.385 16.4316 995.559 16.2262C995.733 16.0207 995.964 15.872 996.223 15.7992C996.558 15.7054 996.915 15.7442 997.222 15.9075C997.528 16.0707 997.76 16.3459 997.868 16.6757Z" fill="#C4DFD5"/>
<path opacity="0.25" d="M727.812 148.164L763.113 6.66382L788.49 40.8591L727.812 148.164Z" stroke="#C4DFD5" stroke-width="0.25" stroke-miterlimit="10"/>
<path opacity="0.25" d="M788.49 40.8592L843.181 0.373596L763.113 6.66387" stroke="#C4DFD5" stroke-width="0.25" stroke-miterlimit="10"/>
<path opacity="0.25" d="M844.792 43.9335L927.994 -6.901L843.18 0.373576L844.792 43.9335Z" stroke="#C4DFD5" stroke-width="0.25" stroke-miterlimit="10"/>
<path opacity="0.25" d="M798.461 123.475L788.598 41.3243L844.792 43.9335L798.461 123.475Z" stroke="#C4DFD5" stroke-width="0.25" stroke-miterlimit="10"/>
<path opacity="0.25" d="M944.405 84.3179L844.792 43.9334L996.608 17.0599L944.405 84.3179Z" stroke="#C4DFD5" stroke-width="0.25" stroke-miterlimit="10"/>
<path opacity="0.25" d="M861.613 -111.348L927.994 -6.901L843.18 0.373573L861.613 -111.348Z" stroke="#C4DFD5" stroke-width="0.25" stroke-miterlimit="10"/>
<path opacity="0.25" d="M996.608 17.06L1012.86 -68.1047L927.995 -6.90102L996.608 17.06Z" stroke="#C4DFD5" stroke-width="0.25" stroke-miterlimit="10"/>
<path opacity="0.25" d="M705.712 48.2753L666.413 6.53575L762.142 6.4953" stroke="#C4DFD5" stroke-width="0.25" stroke-miterlimit="10"/>
<path opacity="0.25" d="M861.613 -111.348L827.135 -36.8084L843.181 0.373573" stroke="#C4DFD5" stroke-width="0.25" stroke-miterlimit="10"/>
<path opacity="0.25" d="M996.608 17.06L1050.48 14.1475L944.405 84.3179L873.749 121.089L844.792 43.9335" stroke="#C4DFD5" stroke-width="0.25" stroke-miterlimit="10"/>
<path opacity="0.25" d="M727.812 148.164L705.988 48.1944L762.425 7.17627" stroke="#C4DFD5" stroke-width="0.25" stroke-miterlimit="10"/>
<path opacity="0.25" d="M705.988 48.1944L665.273 93.3724L666.413 6.53578L751.052 -101.74L762.715 5.86834" stroke="#C4DFD5" stroke-width="0.25" stroke-miterlimit="10"/>
<path opacity="0.25" d="M1013.33 -67.7069L1058.03 -28.9473L997.323 16.6487" stroke="#C4DFD5" stroke-width="0.25" stroke-miterlimit="10"/>
</g>
<g opacity="0.25">
<path opacity="0.25" d="M255.611 38.0949C255.661 38.2609 255.661 38.438 255.61 38.6037C255.56 38.7695 255.461 38.9165 255.327 39.0262C255.193 39.1359 255.029 39.2033 254.856 39.22C254.684 39.2366 254.51 39.2017 254.358 39.1197C254.205 39.0377 254.08 38.9122 253.998 38.7592C253.917 38.6062 253.883 38.4325 253.9 38.26C253.917 38.0875 253.986 37.9241 254.096 37.7903C254.206 37.6565 254.353 37.5584 254.519 37.5084C254.63 37.4751 254.745 37.464 254.86 37.4754C254.974 37.4869 255.085 37.5209 255.187 37.5754C255.288 37.6298 255.378 37.7038 255.451 37.7929C255.524 37.8821 255.578 37.9847 255.611 38.0949Z" fill="#C4DFD5"/>
<path opacity="0.25" d="M202.161 40.8929C202.246 41.1489 202.252 41.4243 202.178 41.6837C202.105 41.9431 201.955 42.1746 201.749 42.3481C201.543 42.5217 201.289 42.6295 201.021 42.6575C200.753 42.6855 200.483 42.6325 200.245 42.5054C200.007 42.3782 199.813 42.1827 199.687 41.944C199.562 41.7054 199.511 41.4347 199.541 41.1668C199.571 40.8988 199.68 40.646 199.855 40.441C200.03 40.2359 200.263 40.088 200.523 40.0164C200.856 39.9156 201.216 39.9513 201.523 40.1157C201.83 40.28 202.06 40.5596 202.161 40.8929Z" fill="#C4DFD5"/>
<path opacity="0.25" d="M148.697 108.535L49.0911 68.1507L200.9 41.2772L148.697 108.535Z" stroke="#C4DFD5" stroke-width="0.25" stroke-miterlimit="10"/>
<path opacity="0.25" d="M200.9 41.2771L217.155 -43.8875L132.287 17.3161L200.9 41.2771Z" stroke="#C4DFD5" stroke-width="0.25" stroke-miterlimit="10"/>
<path opacity="0.25" d="M217.155 -43.8875L173.11 -96.8255L132.287 17.3162" stroke="#C4DFD5" stroke-width="0.25" stroke-miterlimit="10"/>
<path opacity="0.25" d="M200.9 41.2772L254.775 38.3579L148.697 108.535L78.0478 145.306L49.0911 68.1507" stroke="#C4DFD5" stroke-width="0.25" stroke-miterlimit="10"/>
<path opacity="0.25" d="M217.62 -43.4897L262.32 -4.73005L201.622 40.8659" stroke="#C4DFD5" stroke-width="0.25" stroke-miterlimit="10"/>
</g>
<g opacity="0.51">
<path opacity="0.51" d="M453.211 19.7231C452.837 20.0894 452.362 20.3364 451.847 20.4329C451.332 20.5294 450.8 20.4711 450.318 20.2653C449.836 20.0594 449.426 19.7154 449.14 19.2766C448.854 18.8378 448.704 18.324 448.71 17.8001C448.715 17.2762 448.876 16.7657 449.172 16.3332C449.468 15.9007 449.885 15.5656 450.371 15.3702C450.857 15.1748 451.39 15.128 451.903 15.2355C452.416 15.3431 452.885 15.6003 453.252 15.9746C453.742 16.4778 454.013 17.1547 454.006 17.8572C453.998 18.5598 453.713 19.2307 453.211 19.7231Z" fill="#C4DFD5"/>
<path opacity="0.51" d="M653.88 7.64821C653.616 7.90595 653.282 8.07928 652.919 8.14604C652.557 8.21281 652.182 8.16999 651.844 8.02305C651.506 7.87611 651.22 7.63173 651.021 7.32111C650.823 7.0105 650.721 6.64775 650.73 6.27922C650.738 5.91069 650.857 5.5531 651.07 5.25212C651.282 4.95115 651.58 4.72047 651.925 4.58953C652.269 4.45859 652.645 4.43335 653.004 4.51703C653.363 4.6007 653.689 4.78949 653.94 5.0593C654.27 5.41342 654.448 5.8824 654.437 6.36611C654.425 6.84982 654.225 7.30992 653.88 7.64821Z" fill="#C4DFD5"/>
<path opacity="0.51" d="M552.393 37.886C553.271 37.886 553.984 37.1736 553.984 36.2949C553.984 35.4161 553.271 34.7037 552.393 34.7037C551.514 34.7037 550.802 35.4161 550.802 36.2949C550.802 37.1736 551.514 37.886 552.393 37.886Z" fill="#C4DFD5"/>
<path opacity="0.51" d="M451.357 17.8286L439.181 -111.26L552.393 36.2949L451.357 17.8286Z" stroke="#C4DFD5" stroke-width="0.25" stroke-miterlimit="10"/>
<path opacity="0.51" d="M552.393 36.2949L652.585 6.32678L539.873 -50.4744L552.393 36.2949Z" stroke="#C4DFD5" stroke-width="0.25" stroke-miterlimit="10"/>
<path opacity="0.51" d="M652.585 6.32678L658.451 -44.1032L539.873 -50.4744" stroke="#C4DFD5" stroke-width="0.25" stroke-miterlimit="10"/>
<path opacity="0.51" d="M552.393 36.2949L585.476 92.3342L451.357 17.8286L372.706 -37.3477L439.181 -111.26" stroke="#C4DFD5" stroke-width="0.25" stroke-miterlimit="10"/>
<path opacity="0.51" d="M652.423 7.04144L635.804 76.4501L553.229 36.8342" stroke="#C4DFD5" stroke-width="0.25" stroke-miterlimit="10"/>
</g>
<path d="M758.057 56.487C759.897 56.487 761.388 54.9959 761.388 53.1565C761.388 51.3171 759.897 49.8259 758.057 49.8259C756.218 49.8259 754.727 51.3171 754.727 53.1565C754.727 54.9959 756.218 56.487 758.057 56.487Z" fill="#C4DFD5"/>
<path d="M415.126 52.2733C416.232 52.2733 417.128 51.3768 417.128 50.2709C417.128 49.165 416.232 48.2686 415.126 48.2686C414.02 48.2686 413.124 49.165 413.124 50.2709C413.124 51.3768 414.02 52.2733 415.126 52.2733Z" fill="#C4DFD5"/>
<path d="M528.695 47.601C529.801 47.601 530.697 46.7046 530.697 45.5987C530.697 44.4928 529.801 43.5963 528.695 43.5963C527.589 43.5963 526.692 44.4928 526.692 45.5987C526.692 46.7046 527.589 47.601 528.695 47.601Z" fill="#C4DFD5"/>
<path d="M415.126 50.2709L528.918 -139.752L550.701 -78.8582L415.126 50.2709Z" stroke="#C4DFD5" stroke-width="0.25" stroke-miterlimit="10"/>
<path d="M528.695 45.5988L550.647 -78.1367L631.153 -49.517L528.695 45.5988Z" stroke="#C4DFD5" stroke-width="0.25" stroke-miterlimit="10"/>
<path d="M758.057 53.1565L631.153 -49.5171L863.623 -21.5177L758.057 53.1565Z" stroke="#C4DFD5" stroke-width="0.25" stroke-miterlimit="10"/>
<path d="M863.623 -21.5177L943.192 -1.95918L758.057 53.1565L639.156 75.3848L631.153 -49.5171" stroke="#C4DFD5" stroke-width="0.25" stroke-miterlimit="10"/>
<path d="M415.126 50.2709L427.572 -104.639L527.697 -139.307" stroke="#C4DFD5" stroke-width="0.25" stroke-miterlimit="10"/>
<path d="M415.962 50.5474L527.973 46.2123" stroke="#C4DFD5" stroke-width="0.25" stroke-miterlimit="10"/>
<path d="M345.535 12.4282C345.276 12.8974 344.883 13.2789 344.407 13.5238C343.93 13.7688 343.391 13.866 342.859 13.8033C342.326 13.7406 341.825 13.5207 341.418 13.1716C341.011 12.8226 340.718 12.3602 340.575 11.8436C340.432 11.327 340.447 10.7795 340.616 10.2711C340.786 9.76273 341.103 9.31643 341.528 8.9892C341.952 8.66197 342.465 8.46867 343 8.43395C343.534 8.39923 344.068 8.52467 344.531 8.79428C345.14 9.1487 345.586 9.72738 345.774 10.4065C345.961 11.0857 345.876 11.8113 345.535 12.4282Z" fill="#C4DFD5"/>
<path d="M501.403 41.7019C501.175 42.1028 500.833 42.4271 500.421 42.6339C500.009 42.8406 499.544 42.9205 499.086 42.8633C498.629 42.8062 498.198 42.6146 497.849 42.3129C497.501 42.0111 497.249 41.6127 497.126 41.168C497.004 40.7232 497.016 40.2522 497.161 39.8144C497.306 39.3766 497.578 38.9916 497.942 38.7082C498.306 38.4247 498.746 38.2556 499.206 38.222C499.666 38.1884 500.125 38.292 500.527 38.5197C500.793 38.671 501.027 38.8733 501.216 39.1152C501.404 39.357 501.543 39.6336 501.624 39.9291C501.706 40.2247 501.728 40.5333 501.69 40.8375C501.652 41.1417 501.555 41.4354 501.403 41.7019Z" fill="#C4DFD5"/>
<path d="M200.219 -27.336L343.216 11.1135L246.489 -74.6714L200.219 -27.336Z" stroke="#C4DFD5" stroke-width="0.25" stroke-miterlimit="10"/>
<path d="M64.1658 4.84352L144.308 -91.951L200.219 -27.3359L64.1658 4.84352Z" stroke="#C4DFD5" stroke-width="0.25" stroke-miterlimit="10"/>
<path d="M259.932 124.588L200.219 -27.3359L388.596 111.731L259.932 124.588Z" stroke="#C4DFD5" stroke-width="0.25" stroke-miterlimit="10"/>
<path d="M358.319 -70.0059L343.217 11.1135L246.49 -74.6714L358.319 -70.0059Z" stroke="#C4DFD5" stroke-width="0.25" stroke-miterlimit="10"/>
<path d="M388.597 111.731L499.374 40.549L343.217 11.1135L388.597 111.731Z" stroke="#C4DFD5" stroke-width="0.25" stroke-miterlimit="10"/>
<path d="M499.374 40.549L488.897 -22.502L343.217 11.1136" stroke="#C4DFD5" stroke-width="0.25" stroke-miterlimit="10"/>
<path d="M388.596 111.731L428.853 173.73L259.933 124.588L145.542 85.2483L200.219 -27.3359" stroke="#C4DFD5" stroke-width="0.25" stroke-miterlimit="10"/>
<path d="M499.421 41.4727L503.5 131.242L389.797 112.088" stroke="#C4DFD5" stroke-width="0.25" stroke-miterlimit="10"/>
<g opacity="0.25">
<path opacity="0.25" d="M1059.5 47.0145C1059.62 47.4306 1059.62 47.8749 1059.5 48.2913C1059.37 48.7077 1059.13 49.0775 1058.79 49.3537C1058.45 49.6299 1058.04 49.8001 1057.61 49.8429C1057.18 49.8857 1056.74 49.7991 1056.36 49.5941C1055.98 49.3891 1055.66 49.0748 1055.46 48.6911C1055.25 48.3074 1055.17 47.8716 1055.21 47.4387C1055.25 47.0059 1055.42 46.5955 1055.7 46.2596C1055.97 45.9236 1056.34 45.6772 1056.76 45.5515C1057.32 45.3835 1057.92 45.4431 1058.43 45.7173C1058.94 45.9916 1059.33 46.4581 1059.5 47.0145Z" fill="#C4DFD5"/>
<path opacity="0.25" d="M902.72 3.81197C902.743 4.11844 902.662 4.42383 902.488 4.67753C902.315 4.93123 902.06 5.11802 901.765 5.20692C901.471 5.29583 901.155 5.28151 900.87 5.16637C900.585 5.05123 900.348 4.84216 900.198 4.57381C900.1 4.3978 900.042 4.20197 900.03 4.00074C900.017 3.79952 900.05 3.59801 900.125 3.41107C900.201 3.22412 900.317 3.05649 900.466 2.92052C900.615 2.78455 900.792 2.68369 900.985 2.62537C901.178 2.56706 901.382 2.55278 901.581 2.58356C901.78 2.61435 901.97 2.68944 902.137 2.80328C902.303 2.91713 902.442 3.06686 902.543 3.24143C902.644 3.41599 902.704 3.61095 902.72 3.81197Z" fill="#C4DFD5"/>
<path opacity="0.25" d="M819.544 11.3562C819.594 11.5222 819.593 11.6993 819.543 11.865C819.492 12.0308 819.393 12.1778 819.259 12.2875C819.125 12.3972 818.961 12.4646 818.789 12.4812C818.616 12.4979 818.443 12.463 818.29 12.381C818.137 12.299 818.012 12.1735 817.931 12.0205C817.849 11.8675 817.815 11.6938 817.833 11.5213C817.85 11.3488 817.918 11.1854 818.028 11.0516C818.138 10.9178 818.286 10.8197 818.452 10.7697C818.674 10.7044 818.914 10.7294 819.118 10.8391C819.322 10.9489 819.475 11.1346 819.544 11.3562Z" fill="#C4DFD5"/>
<path opacity="0.25" d="M959.049 6.88626C959.133 7.142 959.139 7.41709 959.065 7.67611C958.992 7.93514 958.842 8.16624 958.636 8.33963C958.43 8.51303 958.177 8.62078 957.909 8.64902C957.641 8.67726 957.371 8.6247 957.134 8.4981C956.896 8.3715 956.702 8.17664 956.576 7.93865C956.45 7.70066 956.398 7.43043 956.427 7.16275C956.456 6.89507 956.565 6.64221 956.739 6.43672C956.913 6.23124 957.144 6.08256 957.404 6.00982C957.569 5.95889 957.743 5.94119 957.916 5.95772C958.088 5.97425 958.255 6.02468 958.408 6.10613C958.561 6.18757 958.696 6.29842 958.806 6.4323C958.916 6.56618 958.999 6.72045 959.049 6.88626Z" fill="#C4DFD5"/>
<path opacity="0.25" d="M840.808 111.502L876.109 -29.999L901.486 4.18953L840.808 111.502Z" stroke="#C4DFD5" stroke-width="0.25" stroke-miterlimit="10"/>
<path opacity="0.25" d="M901.486 4.18951L956.177 -36.2893L876.109 -29.9991" stroke="#C4DFD5" stroke-width="0.25" stroke-miterlimit="10"/>
<path opacity="0.25" d="M957.788 7.27059L1040.99 -43.5639L956.177 -36.2893L957.788 7.27059Z" stroke="#C4DFD5" stroke-width="0.25" stroke-miterlimit="10"/>
<path opacity="0.25" d="M911.457 86.8124L901.594 4.65466L957.788 7.27055L911.457 86.8124Z" stroke="#C4DFD5" stroke-width="0.25" stroke-miterlimit="10"/>
<path opacity="0.25" d="M1057.39 47.655L957.788 7.27054L1109.6 -19.603L1057.39 47.655Z" stroke="#C4DFD5" stroke-width="0.25" stroke-miterlimit="10"/>
<path opacity="0.25" d="M818.701 11.6124L779.409 -30.1272L875.138 -30.1676" stroke="#C4DFD5" stroke-width="0.25" stroke-miterlimit="10"/>
<path opacity="0.25" d="M1109.6 -19.6029L1163.47 -22.5222L1057.39 47.655L986.745 84.4257L957.788 7.27058" stroke="#C4DFD5" stroke-width="0.25" stroke-miterlimit="10"/>
<path opacity="0.25" d="M840.808 111.502L818.984 11.5248L875.421 -29.4866" stroke="#C4DFD5" stroke-width="0.25" stroke-miterlimit="10"/>
<path opacity="0.25" d="M818.984 11.5247L778.269 56.7095L779.409 -30.1272L864.047 -138.403L875.711 -30.8014" stroke="#C4DFD5" stroke-width="0.25" stroke-miterlimit="10"/>
</g>
<g opacity="0.51">
<path opacity="0.51" d="M1494.91 32.2159C1494.77 32.363 1494.58 32.4629 1494.37 32.503C1494.17 32.543 1493.96 32.5216 1493.76 32.4412C1493.57 32.3608 1493.4 32.2251 1493.29 32.0513C1493.17 31.8774 1493.11 31.6731 1493.11 31.4641C1493.11 31.2552 1493.17 31.0509 1493.29 30.877C1493.4 30.7032 1493.57 30.5675 1493.76 30.4871C1493.96 30.4067 1494.17 30.3852 1494.37 30.4253C1494.58 30.4654 1494.77 30.5653 1494.91 30.7124C1495.11 30.9121 1495.23 31.1823 1495.23 31.4641C1495.23 31.7459 1495.11 32.0162 1494.91 32.2159Z" fill="#C4DFD5"/>
<path opacity="0.51" d="M1461.09 -24.5852L1494.17 31.4541L1360.06 -43.0515L1281.4 -98.2279L1347.88 -172.14" stroke="#C4DFD5" stroke-width="0.25" stroke-miterlimit="10"/>
<path opacity="0.51" d="M1561.12 -53.8455L1544.5 15.5699L1461.93 -24.0459" stroke="#C4DFD5" stroke-width="0.25" stroke-miterlimit="10"/>
</g>
<path d="M1491.31 29.4247C1492.79 29.4247 1493.98 28.2294 1493.98 26.7549C1493.98 25.2804 1492.79 24.0851 1491.31 24.0851C1489.84 24.0851 1488.64 25.2804 1488.64 26.7549C1488.64 28.2294 1489.84 29.4247 1491.31 29.4247Z" fill="#C4DFD5"/>
<path d="M1364.85 3.19843C1366.69 3.19843 1368.19 1.7073 1368.19 -0.132109C1368.19 -1.97151 1366.69 -3.46265 1364.85 -3.46265C1363.02 -3.46265 1361.52 -1.97151 1361.52 -0.132109C1361.52 1.7073 1363.02 3.19843 1364.85 3.19843Z" fill="#C4DFD5"/>
<path d="M1267.51 36.5375C1268.61 36.5375 1269.51 35.641 1269.51 34.5351C1269.51 33.4292 1268.61 32.5328 1267.51 32.5328C1266.4 32.5328 1265.5 33.4292 1265.5 34.5351C1265.5 35.641 1266.4 36.5375 1267.51 36.5375Z" fill="#C4DFD5"/>
<path d="M1143.94 10.0888C1144.68 10.0888 1145.28 9.49112 1145.28 8.75386C1145.28 8.01661 1144.68 7.41895 1143.94 7.41895C1143.2 7.41895 1142.61 8.01661 1142.61 8.75386C1142.61 9.49112 1143.2 10.0888 1143.94 10.0888Z" fill="#C4DFD5"/>
<path d="M1065.26 58.0916C1066.18 58.0916 1066.93 57.3461 1066.93 56.4264C1066.93 55.5067 1066.18 54.7611 1065.26 54.7611C1064.34 54.7611 1063.6 55.5067 1063.6 56.4264C1063.6 57.3461 1064.34 58.0916 1065.26 58.0916Z" fill="#C4DFD5"/>
<path d="M1131.94 163.664L1245.73 -26.3584L1267.51 34.5351L1131.94 163.664Z" stroke="#C4DFD5" stroke-width="0.25" stroke-miterlimit="10"/>
<path d="M1267.51 34.5351L1364.85 -0.132115L1245.73 -26.3584" stroke="#C4DFD5" stroke-width="0.25" stroke-miterlimit="10"/>
<path d="M1347.97 63.8762L1491.31 26.7549L1364.85 -0.13208L1347.97 63.8762Z" stroke="#C4DFD5" stroke-width="0.25" stroke-miterlimit="10"/>
<path d="M1245.51 158.999L1267.45 35.2565L1347.97 63.8762L1245.51 158.999Z" stroke="#C4DFD5" stroke-width="0.25" stroke-miterlimit="10"/>
<path d="M1464.42 -51.2498L1491.31 26.7549L1364.85 -0.132108L1464.42 -51.2498Z" stroke="#C4DFD5" stroke-width="0.25" stroke-miterlimit="10"/>
<path d="M1580.44 91.8757L1641.67 -24.6931L1491.31 26.7549L1580.44 91.8757Z" stroke="#C4DFD5" stroke-width="0.25" stroke-miterlimit="10"/>
<path d="M1143.94 8.75382L1105.27 -69.2509L1244.4 -27.0259" stroke="#C4DFD5" stroke-width="0.25" stroke-miterlimit="10"/>
<path d="M1641.67 -24.6931L1601.44 -74.368L1491.31 26.7549" stroke="#C4DFD5" stroke-width="0.25" stroke-miterlimit="10"/>
<path d="M1131.94 163.664L1144.39 8.7538L1244.5 -25.9135" stroke="#C4DFD5" stroke-width="0.25" stroke-miterlimit="10"/>
<path d="M1144.39 8.75382L1065.26 56.4263L1105.27 -69.2509L1227.62 -103.257L1245.51 -27.6933" stroke="#C4DFD5" stroke-width="0.25" stroke-miterlimit="10"/>
<path d="M1087.86 23.8626C1087.74 23.4788 1087.74 23.0686 1087.86 22.6842C1087.97 22.2997 1088.2 21.9585 1088.51 21.7039C1088.82 21.4493 1089.2 21.2928 1089.6 21.2545C1090 21.2161 1090.4 21.2976 1090.76 21.4885C1091.11 21.6795 1091.4 21.9712 1091.58 22.3266C1091.77 22.682 1091.85 23.0849 1091.81 23.4841C1091.76 23.8834 1091.6 24.2608 1091.34 24.5683C1091.09 24.8758 1090.74 25.0995 1090.36 25.211C1089.85 25.3582 1089.3 25.2993 1088.83 25.0471C1088.37 24.7949 1088.02 24.3695 1087.86 23.8626Z" fill="#C4DFD5"/>
<path d="M1193.3 2.52426C1193.22 2.26876 1193.22 1.99515 1193.29 1.7383C1193.37 1.48145 1193.52 1.25301 1193.72 1.08208C1193.93 0.911155 1194.18 0.805484 1194.45 0.77856C1194.72 0.751637 1194.98 0.804669 1195.22 0.930897C1195.46 1.05712 1195.65 1.25084 1195.78 1.48732C1195.9 1.72381 1195.95 1.99237 1195.93 2.25876C1195.9 2.52515 1195.79 2.77732 1195.62 2.9831C1195.45 3.18888 1195.22 3.33895 1194.96 3.4142C1194.63 3.5134 1194.26 3.47575 1193.95 3.30935C1193.64 3.14295 1193.4 2.86107 1193.3 2.52426Z" fill="#C4DFD5"/>
<path d="M1343.41 0.683702C1343.31 0.36701 1343.31 0.0286181 1343.41 -0.288523C1343.5 -0.605664 1343.69 -0.887265 1343.95 -1.09763C1344.2 -1.308 1344.51 -1.43763 1344.84 -1.4701C1345.17 -1.50256 1345.5 -1.4364 1345.8 -1.27999C1346.09 -1.12357 1346.33 -0.883975 1346.48 -0.59157C1346.64 -0.299165 1346.7 0.0328676 1346.67 0.362405C1346.64 0.691942 1346.51 1.00413 1346.3 1.25939C1346.08 1.51464 1345.8 1.70146 1345.49 1.79612C1345.06 1.92041 1344.61 1.87342 1344.22 1.66529C1343.83 1.45716 1343.54 1.10459 1343.41 0.683702Z" fill="#C4DFD5"/>
<path d="M910.182 49.6911C910.05 49.2492 910.052 48.778 910.187 48.337C910.322 47.896 910.585 47.505 910.943 47.2134C911.3 46.9219 911.736 46.7429 912.195 46.699C912.655 46.6552 913.116 46.7485 913.523 46.9672C913.929 47.1858 914.261 47.52 914.477 47.9274C914.694 48.3349 914.784 48.7973 914.738 49.2563C914.691 49.7152 914.51 50.1501 914.216 50.5059C913.923 50.8617 913.53 51.1225 913.088 51.2553C912.795 51.3444 912.487 51.3746 912.181 51.3441C911.876 51.3136 911.58 51.2231 911.31 51.0777C911.04 50.9324 910.801 50.735 910.608 50.497C910.414 50.2591 910.27 49.9852 910.182 49.6911Z" fill="#C4DFD5"/>
<path d="M1089.78 23.2896L1041.52 -43.638L1170.36 -54.3915L1089.78 23.2896Z" stroke="#C4DFD5" stroke-width="0.25" stroke-miterlimit="10"/>
<path d="M937.393 -80.2605L912.414 49.0169L1041.52 -43.6381L937.393 -80.2605Z" stroke="#C4DFD5" stroke-width="0.25" stroke-miterlimit="10"/>
<path d="M1089.78 23.2896L1194.59 2.13999L1170.36 -54.3915" stroke="#C4DFD5" stroke-width="0.25" stroke-miterlimit="10"/>
<path d="M912.414 49.0169L965.265 84.9652L1041.52 -43.6381" stroke="#C4DFD5" stroke-width="0.25" stroke-miterlimit="10"/>
<path d="M1378.88 -126.537L1440.87 -195.016L1438.84 -63.1426L1345.01 0.198286L1292.57 -62.4549" stroke="#C4DFD5" stroke-width="0.25" stroke-miterlimit="10"/>
<path d="M911.713 48.4168L843.957 -10.6024L936.301 -79.6403" stroke="#C4DFD5" stroke-width="0.25" stroke-miterlimit="10"/>
<ellipse opacity="0.5" cx="588" cy="47" rx="15" ry="15" transform="rotate(-164.552 588 47)" fill="url(#paint0_linear_387_6265)"/>
<ellipse opacity="0.5" cx="540.846" cy="56.8463" rx="5.65654" ry="5.65654" transform="rotate(-33.7656 540.846 56.8463)" fill="url(#paint1_linear_387_6265)"/>
<circle opacity="0.5" cx="923.5" cy="18.5" r="10.5" fill="url(#paint2_linear_387_6265)"/>
<circle opacity="0.5" cx="122" cy="14" r="15" transform="rotate(-95.2004 122 14)" fill="url(#paint3_linear_387_6265)"/>
<circle opacity="0.5" cx="1417" cy="30" r="19" transform="rotate(60 1417 30)" fill="url(#paint4_linear_387_6265)"/>
</g>
<defs>
<linearGradient id="paint0_linear_387_6265" x1="588" y1="32" x2="588" y2="62" gradientUnits="userSpaceOnUse">
<stop stop-color="#D7E3E7"/>
<stop offset="1" stop-color="#F0F4F7"/>
</linearGradient>
<linearGradient id="paint1_linear_387_6265" x1="540.846" y1="51.1897" x2="540.846" y2="62.5028" gradientUnits="userSpaceOnUse">
<stop stop-color="#D7E3E7"/>
<stop offset="1" stop-color="#F0F4F7"/>
</linearGradient>
<linearGradient id="paint2_linear_387_6265" x1="923.5" y1="8" x2="923.5" y2="29" gradientUnits="userSpaceOnUse">
<stop stop-color="#D7E3E7"/>
<stop offset="1" stop-color="#F0F4F7"/>
</linearGradient>
<linearGradient id="paint3_linear_387_6265" x1="122" y1="-0.999987" x2="122" y2="29" gradientUnits="userSpaceOnUse">
<stop stop-color="#D7E3E7"/>
<stop offset="1" stop-color="#F0F4F7"/>
</linearGradient>
<linearGradient id="paint4_linear_387_6265" x1="1417" y1="11" x2="1417" y2="49" gradientUnits="userSpaceOnUse">
<stop stop-color="#D7E3E7"/>
<stop offset="1" stop-color="#F0F4F7"/>
</linearGradient>
</defs>
</svg>
