<svg width="40" height="40" viewBox="0 0 40 40" fill="none" xmlns="http://www.w3.org/2000/svg">
<path d="M20 13.3167V34.3167" stroke="#12222F" stroke-width="1.5" stroke-linecap="round" stroke-linejoin="round"/>
<path d="M10 14.1667H15" stroke="#12222F" stroke-width="1.5" stroke-linecap="round" stroke-linejoin="round"/>
<path d="M10 20H15" stroke="#12222F" stroke-width="1.5" stroke-linecap="round" stroke-linejoin="round"/>
<path d="M9.99997 25.8335H15" stroke="#12222F" stroke-width="1.5" stroke-linecap="round" stroke-linejoin="round"/>
<path d="M25 14.1667H30" stroke="#12222F" stroke-width="1.5" stroke-linecap="round" stroke-linejoin="round"/>
<path d="M25 20H30" stroke="#12222F" stroke-width="1.5" stroke-linecap="round" stroke-linejoin="round"/>
<path d="M25 25.8335H30" stroke="#12222F" stroke-width="1.5" stroke-linecap="round" stroke-linejoin="round"/>
<path d="M20 35.0001L19.9833 34.9834C18.95 32.9334 16.8667 31.6334 14.5833 31.6501H7.46667H7.45C6.06667 31.6501 4.95 30.5167 4.95 29.1501C4.94834 29.1334 4.94834 29.1334 4.95 29.1334H4.93334V9.11672L4.93167 9.10006C4.915 7.71672 6.04834 6.60006 7.415 6.60006C7.415 6.59839 7.415 6.60006 7.415 6.60006H13.2483C16.915 6.60006 19.8983 9.58339 19.8983 13.2501C19.8817 9.56672 22.8817 6.58339 26.5483 6.58339V6.58172H32.3817H32.365C33.7317 6.56506 34.8483 7.69839 34.8483 9.06506V29.0651V29.0484C34.8483 30.4151 33.7317 31.5317 32.3483 31.5317H25.2317C22.9317 31.5151 20.8483 32.8151 19.8317 34.8484L20 35.0001Z" stroke="#12222F" stroke-width="1.5" stroke-linecap="round" stroke-linejoin="round"/>
</svg>
