<svg width="40" height="40" viewBox="0 0 40 40" fill="none" xmlns="http://www.w3.org/2000/svg">
<path d="M34.3033 15.5883C34.7584 17.0149 34.9934 18.5026 35 20C35 22.9667 34.1203 25.8668 32.4721 28.3336C30.8238 30.8003 28.4812 32.7229 25.7403 33.8582C22.9994 34.9935 19.9834 35.2906 17.0737 34.7118C14.1639 34.133 11.4912 32.7044 9.3934 30.6066C7.29562 28.5088 5.86701 25.8361 5.28823 22.9264C4.70945 20.0166 5.0065 17.0006 6.14181 14.2597C7.27713 11.5189 9.19972 9.17618 11.6665 7.52796C14.1332 5.87973 17.0333 5 20 5C21.4974 5.00666 22.9851 5.24158 24.4117 5.69667" stroke="#12222F" stroke-width="1.5" stroke-linecap="round" stroke-linejoin="round"/>
<path d="M35 7.12329L31.6867 10.4366L29.5617 8.31162" stroke="#12222F" stroke-width="1.5" stroke-linecap="round" stroke-linejoin="round"/>
<path d="M22.5 24.1667C21.3463 24.1667 20.2185 23.8246 19.2592 23.1836C18.2999 22.5426 17.5522 21.6316 17.1107 20.5657C16.6692 19.4998 16.5537 18.3269 16.7787 17.1953C17.0038 16.0638 17.5594 15.0244 18.3752 14.2085C19.191 13.3927 20.2304 12.8372 21.362 12.6121C22.4935 12.387 23.6664 12.5025 24.7323 12.944C25.7982 13.3855 26.7093 14.1332 27.3502 15.0925C27.9912 16.0518 28.3333 17.1796 28.3333 18.3333C28.3333 19.8804 27.7187 21.3642 26.6248 22.4581C25.5308 23.5521 24.0471 24.1667 22.5 24.1667" stroke="#12222F" stroke-width="1.5" stroke-linecap="round" stroke-linejoin="round"/>
<path d="M17.2167 15.8633C16.1866 15.9115 15.1878 16.2325 14.3225 16.7934C13.4572 17.3543 12.7564 18.135 12.2918 19.0556C11.8272 19.9762 11.6155 21.0037 11.6783 22.033C11.7411 23.0623 12.0762 24.0564 12.6493 24.9137C13.2224 25.771 14.0129 26.4607 14.94 26.9122C15.867 27.3637 16.8974 27.5609 17.9257 27.4836C18.954 27.4062 19.9433 27.0571 20.7924 26.472C21.6415 25.8868 22.32 25.0867 22.7583 24.1533" stroke="#12222F" stroke-width="1.5" stroke-linecap="round" stroke-linejoin="round"/>
</svg>
