<svg width="32" height="106" viewBox="0 0 32 106" fill="none" xmlns="http://www.w3.org/2000/svg">
<path d="M11.6503 105.669C10.8571 105.244 10.0218 104.904 9.15804 104.654C7.95998 104.213 6.50615 103.597 5.69547 103.233C6.57793 102.788 7.44145 102.366 8.27358 101.815C8.47661 101.695 8.67963 101.576 8.87372 101.441L9.91556 100.746C11.3808 99.7185 12.765 98.5766 14.0555 97.3311C19.104 92.4768 22.4625 86.0998 23.6216 79.1669C24.7213 72.6969 23.8883 66.0553 21.2295 60.0942C20.0036 57.1861 18.0743 54.6408 15.6182 52.6914C14.3878 51.7523 12.9748 51.0861 11.4703 50.7358C9.96574 50.3855 8.40316 50.359 6.88341 50.6579C5.35815 50.9337 3.93217 51.6216 2.75662 52.6486C1.58481 53.675 0.75747 55.0449 0.390723 56.5658C0.072246 58.0039 0.0726506 59.4934 0.391912 60.9269C0.711172 62.3603 1.34133 63.702 2.23691 64.855C3.09732 65.9457 4.1696 66.8458 5.38825 67.5005C6.60691 68.1552 7.94636 68.5507 9.3248 68.6628C11.9053 68.9102 14.5087 68.4456 16.8587 67.3181C19.0665 66.2454 21.034 64.7231 22.6373 62.8471C24.1392 61.0987 25.4212 59.1691 26.4536 57.1029C28.3449 53.3336 29.7283 49.3273 30.5665 45.192C31.3291 41.5368 31.6876 37.81 31.6353 34.0803C31.6462 33.2202 31.613 32.3604 31.5358 31.5044C31.4725 30.6599 31.4427 29.8378 31.3571 29.0274C31.1145 27.4275 30.9824 25.8572 30.635 24.4028C29.6752 19.445 27.9879 14.6652 25.6289 10.2219L24.9357 8.92839L24.2124 7.74693C23.7396 7.00629 23.288 6.28468 22.8867 5.66998C21.9022 4.43187 21.2282 3.41043 20.5521 2.64204C19.9281 1.77559 19.1873 1.00212 18.3511 0.343898C18.2318 0.44539 18.2577 0.692571 18.7998 1.51851C19.0569 1.93442 19.447 2.49273 20.0136 3.1784L22.0054 6.20795C24.3314 10.0388 26.1883 14.144 27.5353 18.4338C29.9462 26.2455 30.4896 34.5372 29.1209 42.6291C28.5131 46.2339 27.5062 49.7608 26.1195 53.1428C24.8677 56.3919 23.0395 59.3853 20.7256 61.9745C18.5195 64.455 15.5268 66.0769 12.2717 66.5562C10.7679 66.8328 9.22193 66.7176 7.77963 66.2214C6.33734 65.7252 5.04631 64.8643 4.02838 63.7201C3.08447 62.616 2.48221 61.2543 2.29579 59.8028C2.10938 58.3513 2.34695 56.8734 2.97925 55.5511C4.31856 53.1071 7.47749 52.1251 10.256 52.5626C13.0754 53.0882 15.5702 54.7154 17.2029 57.0933C18.8842 59.4641 20.1332 62.1217 20.8914 64.9419C22.3923 70.2682 22.4697 75.9117 21.1157 81.2983C19.9127 86.0738 17.5778 90.4879 14.3137 94.157C12.8701 95.799 11.2593 97.2823 9.50834 98.5818C9.09454 98.898 8.6718 99.1985 8.25573 99.4741L7.91775 99.7039C7.70471 99.8603 7.48606 99.9886 7.2797 100.12C6.43862 100.656 5.70126 101.099 4.97164 101.464C5.17276 100.411 5.28711 99.343 5.3135 98.272C5.37018 97.4825 5.29317 96.69 5.08581 95.9287C4.23491 97.8762 3.44014 101.334 2.54039 103.562C3.59256 104.135 4.69336 104.613 5.82996 104.99C7.6935 105.65 9.68146 105.882 11.6503 105.669Z" fill="#00D58B"/>
</svg>
