<svg width="20" height="20" viewBox="0 0 20 20" fill="none" xmlns="http://www.w3.org/2000/svg">
<path d="M17.5 10C17.5 11.9891 16.7098 13.8968 15.3033 15.3033C13.8968 16.7098 11.9891 17.5 10 17.5" stroke="#00D58B" stroke-width="1.5" stroke-linecap="round" stroke-linejoin="round"/>
<path d="M2.5 10C2.5 8.01088 3.29018 6.10322 4.6967 4.6967C6.10322 3.29018 8.01088 2.5 10 2.5" stroke="#00D58B" stroke-width="1.5" stroke-linecap="round" stroke-linejoin="round"/>
<path d="M2.5 10.0001C2.50012 10.8786 2.65637 11.7501 2.96147 12.574C3.02908 12.7594 3.15966 12.9151 3.33042 13.014C3.50118 13.1129 3.70126 13.1487 3.89572 13.1152L4.71754 12.9702C5.03707 12.9139 5.32217 12.7355 5.51258 12.4728C5.703 12.2101 5.7838 11.8836 5.73792 11.5625L5.49057 9.83102C5.46686 9.66512 5.41005 9.50568 5.32349 9.36218C5.23693 9.21868 5.1224 9.09405 4.98671 8.9957C4.85102 8.89736 4.69694 8.8273 4.53363 8.78969C4.37032 8.75209 4.20111 8.7477 4.03608 8.7768L2.56892 9.03549" stroke="#00D58B" stroke-width="1.5" stroke-linecap="round" stroke-linejoin="round"/>
<path d="M17.5 10C17.5 8.01088 16.7098 6.10322 15.3033 4.6967C13.8968 3.29018 11.9891 2.5 10 2.5" stroke="#00D58B" stroke-width="1.5" stroke-linecap="round" stroke-linejoin="round"/>
<path d="M17.5 10.0001C17.4999 10.8786 17.3436 11.7501 17.0385 12.574C16.9709 12.7594 16.8403 12.9151 16.6696 13.014C16.4988 13.1129 16.2987 13.1487 16.1043 13.1152L15.2825 12.9702C14.9629 12.9139 14.6778 12.7355 14.4874 12.4728C14.297 12.2101 14.2162 11.8836 14.2621 11.5625L14.5094 9.83102C14.5331 9.66512 14.5899 9.50568 14.6765 9.36218C14.7631 9.21868 14.8776 9.09405 15.0133 8.9957C15.149 8.89736 15.3031 8.8273 15.4664 8.78969C15.6297 8.75209 15.7989 8.7477 15.9639 8.7768L17.4311 9.03549" stroke="#00D58B" stroke-width="1.5" stroke-linecap="round" stroke-linejoin="round"/>
<path d="M11.2438 10.4092C11.2426 10.4092 11.2413 10.4096 11.2403 10.4102C11.2393 10.4109 11.2385 10.4119 11.238 10.413C11.2376 10.4142 11.2374 10.4154 11.2377 10.4166C11.2379 10.4178 11.2385 10.4189 11.2394 10.4198C11.2402 10.4207 11.2413 10.4213 11.2426 10.4215C11.2438 10.4218 11.245 10.4216 11.2462 10.4212C11.2473 10.4207 11.2483 10.4199 11.2489 10.4189C11.2496 10.4179 11.25 10.4166 11.25 10.4154C11.25 10.4146 11.2499 10.4138 11.2496 10.413C11.2493 10.4122 11.2489 10.4115 11.2483 10.4109C11.2477 10.4103 11.247 10.4099 11.2462 10.4096C11.2454 10.4093 11.2446 10.4091 11.2438 10.4092" stroke="#00D58B" stroke-width="1.5" stroke-linecap="round" stroke-linejoin="round"/>
<path d="M8.75622 10.4116C8.75499 10.4116 8.75378 10.412 8.75276 10.4127C8.75173 10.4134 8.75094 10.4143 8.75047 10.4155C8.74999 10.4166 8.74987 10.4179 8.75011 10.4191C8.75035 10.4203 8.75095 10.4214 8.75182 10.4223C8.75269 10.4231 8.7538 10.4237 8.75501 10.424C8.75622 10.4242 8.75747 10.4241 8.7586 10.4236C8.75974 10.4231 8.76071 10.4223 8.7614 10.4213C8.76208 10.4203 8.76244 10.4191 8.76244 10.4179C8.7625 10.417 8.76238 10.4162 8.76208 10.4154C8.76179 10.4146 8.76133 10.4139 8.76074 10.4133C8.76015 10.4127 8.75944 10.4123 8.75866 10.412C8.75788 10.4117 8.75705 10.4116 8.75622 10.4116" stroke="#00D58B" stroke-width="1.5" stroke-linecap="round" stroke-linejoin="round"/>
</svg>
