<svg width="19" height="20" viewBox="0 0 19 20" fill="none" xmlns="http://www.w3.org/2000/svg">
<path d="M10.3989 6.17323C10.9151 6.71867 10.9151 7.60298 10.3989 8.14842C9.8827 8.69385 9.04575 8.69385 8.52954 8.14842C8.01333 7.60298 8.01333 6.71867 8.52954 6.17323C9.04575 5.6278 9.88269 5.6278 10.3989 6.17323" stroke="#00D58B" stroke-width="1.5" stroke-linecap="round" stroke-linejoin="round"/>
<path d="M13.7903 6.98333C13.7903 8.225 13.2682 9.40167 12.3659 10.1967L10.9471 11.4458C10.3816 11.9442 9.95883 12.5983 9.72616 13.3367L9.46432 14.1667L9.20247 13.3367C8.96981 12.5992 8.54707 11.9442 7.98158 11.4458L6.56273 10.1967C5.65968 9.40167 5.13835 8.225 5.13835 6.98333V7.00667C5.13835 4.155 7.3735 2.5 9.46432 2.5C11.5551 2.5 13.7903 4.155 13.7903 7.00667" stroke="#00D58B" stroke-width="1.5" stroke-linecap="round" stroke-linejoin="round"/>
<path d="M5.52084 12.165C3.62088 12.6875 2.36607 13.5734 2.36607 14.5834C2.36607 16.1942 5.54371 17.5 9.46429 17.5C13.3849 17.5 16.5625 16.1942 16.5625 14.5834C16.5625 13.5734 15.3077 12.6867 13.4077 12.165" stroke="#00D58B" stroke-width="1.5" stroke-linecap="round" stroke-linejoin="round"/>
</svg>
