<svg width="598" height="305" viewBox="0 0 598 305" fill="none" xmlns="http://www.w3.org/2000/svg">
<g opacity="0.09">
<path opacity="0.09" d="M78.9135 264.031C78.9393 264.379 78.8615 264.726 78.6899 265.029C78.5184 265.332 78.2608 265.577 77.9497 265.734C77.6387 265.89 77.2882 265.951 76.9426 265.908C76.5971 265.865 76.2719 265.721 76.0084 265.493C75.7449 265.266 75.5549 264.965 75.4623 264.629C75.3698 264.294 75.3789 263.938 75.4886 263.608C75.5982 263.277 75.8034 262.987 76.0783 262.773C76.3531 262.559 76.6852 262.432 77.0325 262.407C77.4969 262.375 77.9549 262.528 78.3071 262.832C78.6594 263.136 78.8773 263.567 78.9135 264.031Z" fill="#C4DFD5"/>
<path opacity="0.09" d="M242.723 287.19C242.748 287.536 242.669 287.881 242.497 288.182C242.326 288.483 242.069 288.727 241.759 288.882C241.448 289.037 241.099 289.096 240.756 289.053C240.412 289.01 240.088 288.865 239.826 288.638C239.565 288.411 239.376 288.112 239.284 287.777C239.193 287.443 239.202 287.089 239.311 286.76C239.421 286.431 239.625 286.142 239.899 285.93C240.173 285.717 240.503 285.59 240.849 285.565C241.079 285.548 241.31 285.576 241.529 285.649C241.748 285.721 241.951 285.836 242.125 285.987C242.299 286.138 242.442 286.322 242.544 286.529C242.647 286.735 242.708 286.96 242.723 287.19Z" fill="#C4DFD5"/>
<path opacity="0.09" d="M158.833 275.533C158.866 275.967 158.77 276.402 158.557 276.781C158.343 277.16 158.022 277.468 157.634 277.664C157.245 277.861 156.807 277.938 156.375 277.885C155.943 277.832 155.536 277.652 155.206 277.368C154.877 277.084 154.639 276.708 154.523 276.288C154.407 275.869 154.418 275.424 154.555 275.011C154.693 274.598 154.949 274.234 155.293 273.967C155.637 273.7 156.052 273.541 156.487 273.511C157.065 273.47 157.637 273.659 158.077 274.038C158.516 274.417 158.788 274.955 158.833 275.533Z" fill="#C4DFD5"/>
<path opacity="0.09" d="M95.6874 303.014C95.714 303.282 95.6596 303.552 95.5313 303.789C95.403 304.026 95.2066 304.219 94.9675 304.343C94.7283 304.467 94.4574 304.517 94.1897 304.486C93.922 304.455 93.6698 304.344 93.4656 304.168C93.2614 303.993 93.1146 303.76 93.0441 303.499C92.9736 303.239 92.9827 302.964 93.0702 302.709C93.1576 302.454 93.3195 302.231 93.5348 302.069C93.7502 301.907 94.0091 301.813 94.2783 301.8C94.624 301.783 94.9632 301.899 95.2255 302.125C95.4878 302.351 95.6532 302.669 95.6874 303.014Z" fill="#C4DFD5"/>
<path opacity="0.09" d="M236.386 139.015C236.411 139.283 236.356 139.553 236.226 139.789C236.097 140.025 235.9 140.217 235.661 140.34C235.421 140.464 235.151 140.512 234.883 140.48C234.616 140.448 234.364 140.337 234.161 140.161C233.957 139.985 233.811 139.751 233.741 139.491C233.671 139.231 233.681 138.956 233.769 138.702C233.857 138.447 234.019 138.225 234.234 138.063C234.449 137.902 234.708 137.808 234.977 137.795C235.324 137.778 235.664 137.895 235.926 138.122C236.189 138.35 236.353 138.669 236.386 139.015Z" fill="#C4DFD5"/>
<path opacity="0.09" d="M150.075 235.823C150.088 235.996 150.049 236.169 149.964 236.32C149.878 236.471 149.75 236.593 149.595 236.671C149.44 236.749 149.266 236.779 149.093 236.758C148.921 236.737 148.759 236.665 148.628 236.552C148.497 236.438 148.402 236.289 148.356 236.121C148.31 235.954 148.314 235.777 148.369 235.612C148.423 235.448 148.526 235.303 148.662 235.197C148.799 235.09 148.965 235.026 149.138 235.014C149.369 234.997 149.598 235.073 149.774 235.225C149.949 235.376 150.058 235.592 150.075 235.823Z" fill="#C4DFD5"/>
<path opacity="0.09" d="M12.869 292.017C12.8819 292.19 12.8432 292.363 12.7578 292.514C12.6724 292.665 12.5441 292.787 12.3892 292.865C12.2343 292.943 12.0597 292.974 11.8876 292.952C11.7155 292.931 11.5535 292.859 11.4222 292.746C11.291 292.633 11.1963 292.483 11.1501 292.316C11.104 292.149 11.1085 291.971 11.163 291.807C11.2176 291.642 11.3198 291.497 11.4566 291.391C11.5935 291.284 11.7589 291.221 11.9319 291.208C12.1634 291.192 12.392 291.267 12.5677 291.419C12.7434 291.571 12.8518 291.786 12.869 292.017Z" fill="#C4DFD5"/>
<path opacity="0.09" d="M99.2605 215.442C99.2773 215.659 99.2293 215.876 99.1226 216.066C99.0158 216.256 98.8552 216.409 98.6609 216.508C98.4667 216.606 98.2476 216.644 98.0316 216.618C97.8155 216.591 97.6122 216.501 97.4473 216.359C97.2824 216.217 97.1635 216.029 97.1056 215.82C97.0476 215.61 97.0533 215.387 97.1219 215.181C97.1905 214.974 97.3188 214.793 97.4907 214.659C97.6626 214.526 97.8703 214.446 98.0874 214.431C98.3769 214.41 98.6626 214.505 98.8824 214.695C99.1022 214.884 99.2381 215.153 99.2605 215.442Z" fill="#C4DFD5"/>
<path opacity="0.09" d="M328.4 133.453C328.417 133.67 328.369 133.887 328.262 134.077C328.156 134.266 327.995 134.42 327.801 134.518C327.607 134.617 327.388 134.655 327.171 134.629C326.955 134.602 326.752 134.512 326.587 134.37C326.422 134.228 326.303 134.04 326.245 133.83C326.188 133.621 326.193 133.398 326.262 133.192C326.33 132.985 326.459 132.803 326.631 132.67C326.802 132.536 327.01 132.457 327.227 132.442C327.516 132.423 327.801 132.518 328.02 132.708C328.24 132.897 328.376 133.164 328.4 133.453Z" fill="#C4DFD5"/>
<path opacity="0.09" d="M338.783 246.233C338.806 246.536 338.739 246.839 338.59 247.104C338.44 247.37 338.216 247.584 337.944 247.722C337.673 247.859 337.366 247.913 337.064 247.876C336.762 247.839 336.478 247.713 336.248 247.515C336.017 247.317 335.85 247.054 335.769 246.761C335.688 246.468 335.695 246.157 335.791 245.868C335.886 245.579 336.065 245.325 336.305 245.138C336.545 244.951 336.835 244.839 337.138 244.817C337.544 244.787 337.945 244.919 338.253 245.185C338.561 245.45 338.752 245.827 338.783 246.233Z" fill="#C4DFD5"/>
<path opacity="0.09" d="M374.198 294.391C374.22 294.694 374.152 294.997 374.002 295.261C373.851 295.525 373.626 295.739 373.354 295.875C373.083 296.011 372.777 296.064 372.475 296.027C372.173 295.989 371.89 295.863 371.66 295.664C371.43 295.465 371.264 295.203 371.183 294.909C371.103 294.616 371.11 294.306 371.206 294.017C371.302 293.729 371.481 293.475 371.721 293.288C371.96 293.102 372.25 292.99 372.553 292.968C372.755 292.953 372.957 292.979 373.149 293.042C373.341 293.106 373.518 293.206 373.671 293.338C373.823 293.471 373.949 293.631 374.039 293.812C374.13 293.993 374.184 294.189 374.198 294.391Z" fill="#C4DFD5"/>
<path opacity="0.09" d="M11.507 394.381L77.1603 264.16L94.3726 303.108L11.507 394.381Z" stroke="#C4DFD5" stroke-width="0.25" stroke-miterlimit="10"/>
<path opacity="0.09" d="M94.3728 303.108L156.642 275.695L77.1605 264.16" stroke="#C4DFD5" stroke-width="0.25" stroke-miterlimit="10"/>
<path opacity="0.09" d="M148.605 318.534L240.977 287.318L156.642 275.695L148.605 318.534Z" stroke="#C4DFD5" stroke-width="0.25" stroke-miterlimit="10"/>
<path opacity="0.09" d="M85.8644 385.893L94.3728 303.587L148.605 318.534L85.8644 385.893Z" stroke="#C4DFD5" stroke-width="0.25" stroke-miterlimit="10"/>
<path opacity="0.09" d="M235.078 139.109L240.977 287.318L156.642 275.695L235.078 139.109Z" stroke="#C4DFD5" stroke-width="0.25" stroke-miterlimit="10"/>
<path opacity="0.09" d="M302.612 325.822L337.252 246.347L240.977 287.318L302.612 325.822Z" stroke="#C4DFD5" stroke-width="0.25" stroke-miterlimit="10"/>
<path opacity="0.09" d="M11.9926 292.085L-17.126 242.7L76.2503 263.789" stroke="#C4DFD5" stroke-width="0.25" stroke-miterlimit="10"/>
<path opacity="0.09" d="M235.078 139.109L149.198 235.884L156.641 275.695" stroke="#C4DFD5" stroke-width="0.25" stroke-miterlimit="10"/>
<path opacity="0.09" d="M337.252 246.347L327.308 133.534L240.977 287.318" stroke="#C4DFD5" stroke-width="0.25" stroke-miterlimit="10"/>
<path opacity="0.09" d="M11.507 394.381L12.2823 292.058L76.3783 264.51" stroke="#C4DFD5" stroke-width="0.25" stroke-miterlimit="10"/>
<path opacity="0.09" d="M12.2823 292.058L-37.3993 327.143L-17.1262 242.7L98.1684 215.543L76.9513 263.297" stroke="#C4DFD5" stroke-width="0.25" stroke-miterlimit="10"/>
<path opacity="0.09" d="M337.617 246.833L372.668 294.498L303.401 325.579" stroke="#C4DFD5" stroke-width="0.25" stroke-miterlimit="10"/>
</g>
<g opacity="0.25">
<path opacity="0.25" d="M12.6266 267.47C13.0269 267.3 13.4686 267.253 13.8957 267.334C14.3229 267.415 14.7164 267.622 15.0263 267.927C15.3363 268.231 15.5488 268.622 15.637 269.047C15.7252 269.473 15.6851 269.916 15.5218 270.319C15.3586 270.722 15.0794 271.067 14.7197 271.311C14.36 271.556 13.9359 271.688 13.5011 271.691C13.0663 271.694 12.6403 271.568 12.277 271.329C11.9137 271.091 11.6295 270.749 11.4602 270.349C11.2336 269.812 11.2291 269.208 11.4478 268.668C11.6665 268.128 12.0904 267.697 12.6266 267.47Z" fill="#C4DFD5"/>
<path opacity="0.25" d="M85.6287 158.095C86.0292 157.924 86.4712 157.877 86.8988 157.958C87.3264 158.039 87.7203 158.245 88.0306 158.55C88.3409 158.855 88.5536 159.246 88.6417 159.672C88.7299 160.098 88.6895 160.541 88.5258 160.944C88.362 161.347 88.0822 161.693 87.7219 161.937C87.3616 162.181 86.9369 162.313 86.5017 162.315C86.0665 162.317 85.6404 162.191 85.2773 161.951C84.9143 161.711 84.6306 161.368 84.4624 160.967C84.2378 160.431 84.2345 159.828 84.453 159.29C84.6716 158.752 85.0943 158.322 85.6287 158.095Z" fill="#C4DFD5"/>
<path opacity="0.25" d="M130.018 225.771C130.178 225.704 130.354 225.686 130.524 225.72C130.694 225.753 130.851 225.836 130.973 225.959C131.096 226.081 131.18 226.237 131.214 226.407C131.248 226.577 131.231 226.753 131.165 226.913C131.099 227.074 130.987 227.211 130.843 227.307C130.699 227.404 130.53 227.456 130.357 227.456C130.183 227.457 130.014 227.405 129.87 227.309C129.725 227.213 129.613 227.077 129.546 226.917C129.502 226.811 129.479 226.697 129.479 226.582C129.478 226.466 129.501 226.352 129.545 226.246C129.588 226.14 129.653 226.043 129.734 225.961C129.815 225.88 129.912 225.815 130.018 225.771Z" fill="#C4DFD5"/>
<path opacity="0.25" d="M56.1259 262.157C56.3699 262.042 56.6429 262.003 56.9096 262.044C57.1762 262.086 57.4243 262.207 57.6215 262.391C57.8188 262.575 57.9563 262.814 58.0161 263.078C58.076 263.341 58.0555 263.616 57.9573 263.867C57.8591 264.119 57.6877 264.335 57.4653 264.488C57.2429 264.641 56.9797 264.723 56.7099 264.725C56.44 264.727 56.1758 264.647 55.9515 264.497C55.7272 264.347 55.553 264.133 55.4517 263.883C55.3222 263.564 55.3199 263.207 55.4453 262.886C55.5707 262.565 55.8142 262.304 56.1259 262.157Z" fill="#C4DFD5"/>
<path opacity="0.25" d="M140.043 300C140.287 299.885 140.56 299.845 140.827 299.887C141.094 299.929 141.342 300.05 141.539 300.234C141.736 300.418 141.874 300.657 141.934 300.92C141.993 301.183 141.973 301.459 141.875 301.71C141.777 301.961 141.605 302.177 141.383 302.33C141.16 302.483 140.897 302.566 140.627 302.568C140.357 302.569 140.093 302.49 139.869 302.34C139.645 302.19 139.471 301.976 139.369 301.726C139.24 301.406 139.237 301.05 139.363 300.729C139.488 300.408 139.732 300.147 140.043 300Z" fill="#C4DFD5"/>
<path opacity="0.25" d="M13.665 113.948C13.9091 113.833 14.1821 113.794 14.4488 113.836C14.7155 113.877 14.9635 113.998 15.1607 114.182C15.358 114.366 15.4955 114.606 15.5553 114.869C15.6152 115.132 15.5947 115.407 15.4965 115.658C15.3983 115.91 15.2269 116.126 15.0045 116.279C14.7821 116.432 14.5189 116.514 14.249 116.516C13.9791 116.518 13.7149 116.438 13.4906 116.288C13.2663 116.138 13.0922 115.924 12.9908 115.674C12.8614 115.355 12.8591 114.998 12.9845 114.677C13.1099 114.356 13.3534 114.095 13.665 113.948Z" fill="#C4DFD5"/>
<path opacity="0.25" d="M59.4092 319.693L13.4829 269.492L28.0321 348.481" stroke="#C4DFD5" stroke-width="0.25" stroke-miterlimit="10"/>
<path opacity="0.25" d="M56.6382 263.371L-2.54285 185.885L13.4828 269.492L56.6382 263.371Z" stroke="#C4DFD5" stroke-width="0.25" stroke-miterlimit="10"/>
<path opacity="0.25" d="M140.556 301.213L59.8676 319.538L56.6382 263.371L140.556 301.213Z" stroke="#C4DFD5" stroke-width="0.25" stroke-miterlimit="10"/>
<path opacity="0.25" d="M86.4849 160.117L56.6382 263.371L14.1772 115.162L86.4849 160.117Z" stroke="#C4DFD5" stroke-width="0.25" stroke-miterlimit="10"/>
<path opacity="0.25" d="M-99.5464 262.737L-2.54283 185.885L13.4829 269.492L-99.5464 262.737Z" stroke="#C4DFD5" stroke-width="0.25" stroke-miterlimit="10"/>
<path opacity="0.25" d="M14.1774 115.162L-72.2075 107.82L-2.54266 185.885L14.1774 115.162Z" stroke="#C4DFD5" stroke-width="0.25" stroke-miterlimit="10"/>
<path opacity="0.25" d="M-99.5464 262.737L-21.8384 289.307L13.4829 269.492" stroke="#C4DFD5" stroke-width="0.25" stroke-miterlimit="10"/>
<path opacity="0.25" d="M14.1773 115.162L5.69592 61.8868L86.485 160.117L130.375 226.58L56.6383 263.371" stroke="#C4DFD5" stroke-width="0.25" stroke-miterlimit="10"/>
<path opacity="0.25" d="M-71.8638 107.321L-37.9449 58.8394L13.6986 114.488" stroke="#C4DFD5" stroke-width="0.25" stroke-miterlimit="10"/>
<path opacity="0.25" d="M172.384 368.35L141.108 301.497" stroke="#C4DFD5" stroke-width="0.25" stroke-miterlimit="10"/>
</g>
<g opacity="0.25">
<path opacity="0.25" d="M361.867 273.268C361.952 273.524 361.958 273.799 361.885 274.059C361.811 274.318 361.662 274.55 361.455 274.723C361.249 274.897 360.995 275.005 360.727 275.033C360.459 275.061 360.189 275.008 359.951 274.88C359.713 274.753 359.519 274.558 359.394 274.319C359.268 274.081 359.217 273.81 359.247 273.542C359.277 273.274 359.387 273.021 359.562 272.816C359.737 272.611 359.969 272.463 360.229 272.392C360.394 272.341 360.568 272.323 360.74 272.34C360.912 272.356 361.079 272.407 361.231 272.488C361.383 272.57 361.518 272.681 361.627 272.814C361.736 272.948 361.818 273.102 361.867 273.268Z" fill="#C4DFD5"/>
<path opacity="0.25" d="M251.103 282.943C251.168 283.152 251.168 283.375 251.105 283.584C251.042 283.793 250.918 283.978 250.748 284.117C250.579 284.255 250.373 284.34 250.155 284.36C249.938 284.38 249.719 284.335 249.527 284.231C249.335 284.126 249.179 283.967 249.078 283.773C248.977 283.579 248.937 283.36 248.961 283.143C248.985 282.925 249.074 282.721 249.216 282.554C249.357 282.388 249.545 282.267 249.755 282.208C250.031 282.13 250.327 282.163 250.579 282.301C250.831 282.438 251.019 282.668 251.103 282.943Z" fill="#C4DFD5"/>
<path opacity="0.25" d="M468.862 263.634C468.928 263.842 468.93 264.066 468.867 264.275C468.805 264.485 468.682 264.671 468.513 264.81C468.345 264.95 468.138 265.035 467.921 265.057C467.703 265.078 467.484 265.034 467.292 264.93C467.099 264.826 466.942 264.667 466.841 264.473C466.739 264.28 466.698 264.06 466.722 263.843C466.745 263.626 466.834 263.42 466.975 263.253C467.116 263.086 467.304 262.965 467.514 262.906C467.789 262.826 468.085 262.857 468.337 262.993C468.59 263.13 468.778 263.36 468.862 263.634Z" fill="#C4DFD5"/>
<path opacity="0.25" d="M360.613 273.652L426.994 378.099L342.18 385.374L360.613 273.652Z" stroke="#C4DFD5" stroke-width="0.25" stroke-miterlimit="10"/>
<path opacity="0.25" d="M360.613 273.652L326.135 348.192L342.181 385.374" stroke="#C4DFD5" stroke-width="0.25" stroke-miterlimit="10"/>
<path opacity="0.25" d="M511.863 316.895L467.817 263.957L426.995 378.099" stroke="#C4DFD5" stroke-width="0.25" stroke-miterlimit="10"/>
<path opacity="0.25" d="M204.988 433.194L164.273 478.372L165.413 391.536L250.052 283.26L261.715 390.868" stroke="#C4DFD5" stroke-width="0.25" stroke-miterlimit="10"/>
</g>
<g opacity="0.51">
<path opacity="0.51" d="M68.2272 277.522C69.1059 277.522 69.8183 276.81 69.8183 275.931C69.8183 275.052 69.1059 274.34 68.2272 274.34C67.3485 274.34 66.6361 275.052 66.6361 275.931C66.6361 276.81 67.3485 277.522 68.2272 277.522Z" fill="#C4DFD5"/>
<path opacity="0.51" d="M15.5251 210.723C15.3767 210.87 15.1881 210.97 14.983 211.01C14.7779 211.05 14.5655 211.028 14.3727 210.948C14.1798 210.868 14.015 210.732 13.8991 210.558C13.7832 210.384 13.7214 210.18 13.7214 209.971C13.7214 209.762 13.7832 209.558 13.8991 209.384C14.015 209.21 14.1798 209.074 14.3727 208.994C14.5655 208.914 14.7779 208.892 14.983 208.932C15.1881 208.972 15.3767 209.072 15.5251 209.219C15.7239 209.419 15.8356 209.689 15.8356 209.971C15.8356 210.253 15.7239 210.523 15.5251 210.723Z" fill="#C4DFD5"/>
<path opacity="0.51" d="M-61.8187 273.74L38.8727 334.526L-16.0946 247.783L-61.8187 273.74Z" stroke="#C4DFD5" stroke-width="0.25" stroke-miterlimit="10"/>
<path opacity="0.51" d="M-49.6427 402.829L-61.8187 273.74L51.3925 421.295L-49.6427 402.829Z" stroke="#C4DFD5" stroke-width="0.25" stroke-miterlimit="10"/>
<path opacity="0.51" d="M68.2273 275.931L38.8727 334.526L-16.0946 247.783L68.2273 275.931Z" stroke="#C4DFD5" stroke-width="0.25" stroke-miterlimit="10"/>
<path opacity="0.51" d="M68.2273 275.931L14.7837 209.927L-16.0946 247.783" stroke="#C4DFD5" stroke-width="0.25" stroke-miterlimit="10"/>
<path opacity="0.51" d="M51.3927 421.295L84.4755 477.334L-49.6426 402.829L-128.294 347.652L-61.8186 273.74" stroke="#C4DFD5" stroke-width="0.25" stroke-miterlimit="10"/>
</g>
<path d="M27.9171 247.918C29.3916 247.918 30.5869 246.723 30.5869 245.248C30.5869 243.774 29.3916 242.578 27.9171 242.578C26.4426 242.578 25.2473 243.774 25.2473 245.248C25.2473 246.723 26.4426 247.918 27.9171 247.918Z" fill="#C4DFD5"/>
<path d="M273.507 301.031C274.982 301.031 276.177 299.836 276.177 298.362C276.177 296.887 274.982 295.692 273.507 295.692C272.033 295.692 270.837 296.887 270.837 298.362C270.837 299.836 272.033 301.031 273.507 301.031Z" fill="#C4DFD5"/>
<path d="M147.048 274.805C148.888 274.805 150.379 273.314 150.379 271.475C150.379 269.635 148.888 268.144 147.048 268.144C145.209 268.144 143.718 269.635 143.718 271.475C143.718 273.314 145.209 274.805 147.048 274.805Z" fill="#C4DFD5"/>
<path d="M49.7008 308.144C50.8067 308.144 51.7032 307.248 51.7032 306.142C51.7032 305.036 50.8067 304.139 49.7008 304.139C48.595 304.139 47.6985 305.036 47.6985 306.142C47.6985 307.248 48.595 308.144 49.7008 308.144Z" fill="#C4DFD5"/>
<path d="M246.613 222.359C247.719 222.359 248.616 221.463 248.616 220.357C248.616 219.251 247.719 218.355 246.613 218.355C245.507 218.355 244.611 219.251 244.611 220.357C244.611 221.463 245.507 222.359 246.613 222.359Z" fill="#C4DFD5"/>
<path d="M110.817 197.353C111.554 197.353 112.152 196.756 112.152 196.018C112.152 195.281 111.554 194.684 110.817 194.684C110.079 194.684 109.482 195.281 109.482 196.018C109.482 196.756 110.079 197.353 110.817 197.353Z" fill="#C4DFD5"/>
<path d="M9.80854 170.015C10.7282 170.015 11.4738 169.269 11.4738 168.349C11.4738 167.43 10.7282 166.684 9.80854 166.684C8.88884 166.684 8.14325 167.43 8.14325 168.349C8.14325 169.269 8.88884 170.015 9.80854 170.015Z" fill="#C4DFD5"/>
<path d="M383.631 198.904C384.551 198.904 385.296 198.158 385.296 197.239C385.296 196.319 384.551 195.573 383.631 195.573C382.711 195.573 381.966 196.319 381.966 197.239C381.966 198.158 382.711 198.904 383.631 198.904Z" fill="#C4DFD5"/>
<path d="M423.854 249.246C425.142 249.246 426.186 248.202 426.186 246.914C426.186 245.625 425.142 244.581 423.854 244.581C422.565 244.581 421.521 245.625 421.521 246.914C421.521 248.202 422.565 249.246 423.854 249.246Z" fill="#C4DFD5"/>
<path d="M-85.8735 435.271L27.9175 245.248L49.7009 306.142L-85.8735 435.271Z" stroke="#C4DFD5" stroke-width="0.25" stroke-miterlimit="10"/>
<path d="M49.7003 306.142L147.041 271.475L27.9169 245.248" stroke="#C4DFD5" stroke-width="0.25" stroke-miterlimit="10"/>
<path d="M130.153 335.483L273.507 298.362L147.041 271.475L130.153 335.483Z" stroke="#C4DFD5" stroke-width="0.25" stroke-miterlimit="10"/>
<path d="M246.614 220.357L273.507 298.362L147.041 271.475L246.614 220.357Z" stroke="#C4DFD5" stroke-width="0.25" stroke-miterlimit="10"/>
<path d="M362.623 363.482L423.853 246.914L273.507 298.362L362.623 363.482Z" stroke="#C4DFD5" stroke-width="0.25" stroke-miterlimit="10"/>
<path d="M-73.8728 280.361L-112.538 202.356L26.5894 244.581" stroke="#C4DFD5" stroke-width="0.25" stroke-miterlimit="10"/>
<path d="M246.613 220.357L110.816 196.018L147.041 271.475" stroke="#C4DFD5" stroke-width="0.25" stroke-miterlimit="10"/>
<path d="M423.853 246.914L383.631 197.239L273.507 298.362" stroke="#C4DFD5" stroke-width="0.25" stroke-miterlimit="10"/>
<path d="M-85.8735 435.271L-73.4279 280.361L26.6972 245.693" stroke="#C4DFD5" stroke-width="0.25" stroke-miterlimit="10"/>
<path d="M-73.4283 280.361L-152.545 328.033L-112.538 202.356L9.80818 168.349L27.6946 243.913" stroke="#C4DFD5" stroke-width="0.25" stroke-miterlimit="10"/>
<path d="M424.352 247.689L472.193 323.759L363.85 363.206" stroke="#C4DFD5" stroke-width="0.25" stroke-miterlimit="10"/>
<g opacity="0.09">
<path opacity="0.09" d="M387.022 135.078C387.046 135.423 386.968 135.769 386.796 136.07C386.624 136.371 386.367 136.614 386.057 136.769C385.747 136.924 385.398 136.984 385.054 136.94C384.71 136.897 384.387 136.753 384.125 136.526C383.863 136.299 383.674 135.999 383.583 135.665C383.491 135.331 383.5 134.977 383.61 134.648C383.719 134.319 383.924 134.03 384.198 133.817C384.471 133.605 384.802 133.478 385.148 133.453C385.611 133.421 386.068 133.574 386.42 133.879C386.771 134.183 386.987 134.614 387.022 135.078Z" fill="#C4DFD5"/>
<path opacity="0.09" d="M550.838 158.23C550.864 158.577 550.786 158.924 550.615 159.227C550.443 159.53 550.185 159.775 549.874 159.932C549.563 160.088 549.213 160.149 548.867 160.106C548.522 160.063 548.197 159.919 547.933 159.692C547.67 159.464 547.48 159.163 547.387 158.828C547.294 158.492 547.304 158.136 547.413 157.806C547.523 157.475 547.728 157.185 548.003 156.971C548.278 156.757 548.61 156.63 548.957 156.605C549.422 156.571 549.881 156.724 550.234 157.028C550.586 157.333 550.804 157.765 550.838 158.23Z" fill="#C4DFD5"/>
<path opacity="0.09" d="M466.941 146.579C466.973 147.012 466.877 147.444 466.663 147.821C466.45 148.198 466.129 148.504 465.742 148.699C465.355 148.894 464.919 148.97 464.489 148.917C464.059 148.864 463.654 148.685 463.325 148.402C462.997 148.119 462.76 147.745 462.644 147.327C462.529 146.909 462.54 146.467 462.675 146.055C462.811 145.643 463.066 145.281 463.408 145.015C463.75 144.748 464.163 144.589 464.595 144.557C465.174 144.514 465.747 144.703 466.187 145.083C466.627 145.462 466.898 146 466.941 146.579Z" fill="#C4DFD5"/>
<path opacity="0.09" d="M547.15 250.79C547.184 251.224 547.088 251.658 546.875 252.037C546.661 252.416 546.34 252.724 545.952 252.92C545.564 253.117 545.127 253.194 544.695 253.141C544.263 253.089 543.856 252.91 543.526 252.626C543.196 252.343 542.958 251.968 542.842 251.548C542.725 251.129 542.736 250.685 542.872 250.272C543.008 249.859 543.263 249.495 543.606 249.227C543.949 248.96 544.364 248.8 544.798 248.768C545.378 248.725 545.951 248.914 546.392 249.293C546.833 249.672 547.106 250.21 547.15 250.79Z" fill="#C4DFD5"/>
<path opacity="0.09" d="M403.796 174.06C403.852 174.253 403.865 174.456 403.832 174.655C403.8 174.853 403.723 175.042 403.609 175.207C403.494 175.373 403.343 175.51 403.169 175.61C402.994 175.709 402.799 175.768 402.598 175.783C402.397 175.797 402.196 175.766 402.009 175.693C401.821 175.619 401.653 175.505 401.516 175.358C401.378 175.211 401.276 175.035 401.215 174.843C401.155 174.651 401.138 174.448 401.166 174.249C401.149 173.902 401.266 173.562 401.494 173.299C401.721 173.037 402.041 172.872 402.387 172.839C402.733 172.822 403.074 172.94 403.336 173.167C403.598 173.394 403.763 173.714 403.796 174.06Z" fill="#C4DFD5"/>
<path opacity="0.09" d="M320.93 265.333C320.955 265.601 320.9 265.87 320.771 266.106C320.641 266.343 320.444 266.535 320.205 266.658C319.966 266.781 319.695 266.83 319.428 266.798C319.16 266.766 318.909 266.655 318.705 266.478C318.502 266.302 318.355 266.069 318.286 265.809C318.216 265.549 318.225 265.274 318.313 265.019C318.401 264.765 318.563 264.542 318.778 264.381C318.993 264.219 319.252 264.126 319.521 264.112C319.868 264.095 320.208 264.212 320.47 264.44C320.733 264.667 320.898 264.987 320.93 265.333Z" fill="#C4DFD5"/>
<path opacity="0.09" d="M458.183 106.896C458.195 107.069 458.155 107.241 458.069 107.391C457.982 107.542 457.854 107.663 457.698 107.74C457.543 107.817 457.369 107.846 457.197 107.824C457.025 107.802 456.864 107.729 456.733 107.616C456.603 107.502 456.509 107.352 456.463 107.185C456.418 107.018 456.423 106.841 456.478 106.677C456.532 106.513 456.635 106.368 456.772 106.262C456.908 106.156 457.073 106.093 457.246 106.08C457.362 106.071 457.478 106.085 457.588 106.121C457.697 106.158 457.799 106.215 457.886 106.291C457.973 106.367 458.045 106.46 458.096 106.564C458.147 106.668 458.177 106.781 458.183 106.896Z" fill="#C4DFD5"/>
<path opacity="0.09" d="M468.816 271.158C468.833 271.39 468.756 271.62 468.604 271.796C468.452 271.973 468.236 272.081 468.003 272.098C467.771 272.115 467.541 272.039 467.365 271.887C467.188 271.734 467.08 271.518 467.063 271.286C467.054 271.171 467.069 271.055 467.105 270.946C467.141 270.836 467.199 270.735 467.274 270.647C467.35 270.56 467.441 270.488 467.545 270.437C467.648 270.385 467.76 270.354 467.875 270.345C467.99 270.337 468.106 270.351 468.215 270.387C468.325 270.424 468.426 270.481 468.514 270.557C468.601 270.632 468.672 270.724 468.724 270.827C468.776 270.93 468.807 271.043 468.816 271.158Z" fill="#C4DFD5"/>
<path opacity="0.09" d="M320.977 163.064C320.987 163.178 320.973 163.294 320.937 163.403C320.901 163.513 320.844 163.614 320.769 163.701C320.693 163.788 320.602 163.86 320.499 163.911C320.395 163.963 320.283 163.993 320.168 164.001C319.936 164.018 319.706 163.942 319.53 163.789C319.353 163.637 319.245 163.421 319.228 163.188C319.211 162.956 319.287 162.726 319.439 162.55C319.592 162.373 319.808 162.265 320.04 162.248C320.155 162.24 320.271 162.254 320.38 162.291C320.49 162.327 320.591 162.385 320.678 162.461C320.765 162.537 320.837 162.629 320.888 162.732C320.939 162.836 320.97 162.948 320.977 163.064Z" fill="#C4DFD5"/>
<path opacity="0.09" d="M292.074 113.638C292.088 113.853 292.039 114.068 291.931 114.254C291.823 114.441 291.663 114.592 291.47 114.688C291.277 114.783 291.06 114.82 290.846 114.793C290.632 114.765 290.431 114.675 290.269 114.534C290.106 114.393 289.989 114.207 289.931 113.999C289.874 113.791 289.88 113.571 289.948 113.366C290.015 113.162 290.142 112.982 290.312 112.849C290.481 112.716 290.686 112.637 290.901 112.62C291.045 112.609 291.19 112.627 291.327 112.672C291.464 112.718 291.591 112.79 291.7 112.884C291.809 112.979 291.899 113.094 291.963 113.224C292.027 113.353 292.065 113.494 292.074 113.638Z" fill="#C4DFD5"/>
<path opacity="0.09" d="M407.369 86.5084C407.384 86.7237 407.336 86.9386 407.229 87.1261C407.122 87.3137 406.962 87.4654 406.77 87.5622C406.577 87.659 406.36 87.6966 406.145 87.6701C405.931 87.6436 405.73 87.5543 405.566 87.4134C405.403 87.2725 405.285 87.0864 405.227 86.8785C405.17 86.6706 405.175 86.4503 405.242 86.2453C405.309 86.0403 405.436 85.8598 405.606 85.7267C405.775 85.5935 405.981 85.5137 406.196 85.4971C406.34 85.4852 406.484 85.502 406.621 85.5466C406.759 85.5911 406.885 85.6626 406.995 85.7567C407.104 85.8509 407.193 85.9658 407.257 86.0949C407.322 86.224 407.36 86.3646 407.369 86.5084Z" fill="#C4DFD5"/>
<path opacity="0.09" d="M271.808 198.108C271.825 198.325 271.777 198.543 271.67 198.732C271.563 198.922 271.403 199.076 271.209 199.174C271.014 199.272 270.795 199.311 270.579 199.284C270.363 199.258 270.16 199.168 269.995 199.026C269.83 198.884 269.711 198.696 269.653 198.486C269.595 198.276 269.601 198.054 269.669 197.847C269.738 197.641 269.866 197.459 270.038 197.325C270.21 197.192 270.418 197.112 270.635 197.097C270.924 197.077 271.21 197.171 271.43 197.361C271.65 197.55 271.786 197.819 271.808 198.108Z" fill="#C4DFD5"/>
<path opacity="0.09" d="M458.035 189.485C458.091 189.679 458.104 189.882 458.072 190.08C458.039 190.279 457.963 190.468 457.848 190.633C457.733 190.798 457.583 190.936 457.408 191.035C457.233 191.135 457.038 191.194 456.837 191.208C456.637 191.223 456.435 191.192 456.248 191.119C456.061 191.045 455.892 190.93 455.755 190.783C455.618 190.636 455.515 190.46 455.455 190.268C455.394 190.076 455.377 189.873 455.406 189.674C455.449 189.369 455.595 189.088 455.821 188.878C456.046 188.667 456.337 188.541 456.644 188.518C456.952 188.496 457.257 188.58 457.51 188.756C457.763 188.932 457.949 189.19 458.035 189.485Z" fill="#C4DFD5"/>
<path opacity="0.09" d="M395.294 256.844C395.311 257.191 395.194 257.531 394.967 257.794C394.739 258.056 394.419 258.221 394.074 258.254C393.806 258.279 393.536 258.223 393.3 258.094C393.064 257.965 392.872 257.768 392.749 257.528C392.625 257.289 392.576 257.018 392.608 256.751C392.64 256.484 392.752 256.232 392.928 256.028C393.104 255.825 393.337 255.679 393.597 255.609C393.857 255.539 394.132 255.549 394.387 255.636C394.642 255.724 394.864 255.886 395.026 256.101C395.187 256.317 395.281 256.576 395.294 256.844Z" fill="#C4DFD5"/>
<path opacity="0.09" d="M319.622 265.427L385.269 135.206L402.481 174.154L319.622 265.427Z" stroke="#C4DFD5" stroke-width="0.25" stroke-miterlimit="10"/>
<path opacity="0.09" d="M402.481 174.154L464.757 146.735L385.269 135.206" stroke="#C4DFD5" stroke-width="0.25" stroke-miterlimit="10"/>
<path opacity="0.09" d="M456.72 189.58L549.085 158.358L464.757 146.734L456.72 189.58Z" stroke="#C4DFD5" stroke-width="0.25" stroke-miterlimit="10"/>
<path opacity="0.09" d="M393.979 256.939L402.481 174.633L456.72 189.58L393.979 256.939Z" stroke="#C4DFD5" stroke-width="0.25" stroke-miterlimit="10"/>
<path opacity="0.09" d="M544.959 250.945L456.72 189.58L610.72 196.868L544.959 250.945Z" stroke="#C4DFD5" stroke-width="0.25" stroke-miterlimit="10"/>
<path opacity="0.09" d="M543.186 10.1489L549.085 158.358L464.757 146.735L543.186 10.1489Z" stroke="#C4DFD5" stroke-width="0.25" stroke-miterlimit="10"/>
<path opacity="0.09" d="M610.721 196.868L645.361 117.393L549.085 158.358L610.721 196.868Z" stroke="#C4DFD5" stroke-width="0.25" stroke-miterlimit="10"/>
<path opacity="0.09" d="M320.101 163.124L290.982 113.746L384.365 134.828" stroke="#C4DFD5" stroke-width="0.25" stroke-miterlimit="10"/>
<path opacity="0.09" d="M543.186 10.1489L457.314 106.93L464.757 146.735" stroke="#C4DFD5" stroke-width="0.25" stroke-miterlimit="10"/>
<path opacity="0.09" d="M645.361 117.393L635.416 4.57999L549.085 158.358" stroke="#C4DFD5" stroke-width="0.25" stroke-miterlimit="10"/>
<path opacity="0.09" d="M610.72 196.868L663.901 205.909L544.959 250.945L467.939 271.218L456.72 189.58" stroke="#C4DFD5" stroke-width="0.25" stroke-miterlimit="10"/>
<path opacity="0.09" d="M319.622 265.427L320.397 163.104L384.487 135.556" stroke="#C4DFD5" stroke-width="0.25" stroke-miterlimit="10"/>
<path opacity="0.09" d="M320.398 163.104L270.716 198.189L290.982 113.746L406.277 86.5894L385.06 134.336" stroke="#C4DFD5" stroke-width="0.25" stroke-miterlimit="10"/>
<path opacity="0.09" d="M320.182 265.569L393.534 257.377" stroke="#C4DFD5" stroke-width="0.25" stroke-miterlimit="10"/>
</g>
<g opacity="0.25">
<path opacity="0.25" d="M474.863 236.605C474.948 236.861 474.954 237.137 474.88 237.396C474.807 237.655 474.657 237.887 474.451 238.06C474.245 238.234 473.991 238.342 473.723 238.37C473.455 238.398 473.185 238.345 472.947 238.218C472.709 238.09 472.515 237.895 472.39 237.656C472.264 237.418 472.213 237.147 472.243 236.879C472.273 236.611 472.382 236.358 472.557 236.153C472.733 235.948 472.965 235.8 473.225 235.729C473.558 235.628 473.918 235.664 474.225 235.828C474.533 235.992 474.762 236.272 474.863 236.605Z" fill="#C4DFD5"/>
<path opacity="0.25" d="M364.099 246.28C364.163 246.489 364.164 246.712 364.101 246.921C364.038 247.13 363.913 247.316 363.744 247.454C363.575 247.592 363.368 247.677 363.151 247.697C362.933 247.717 362.715 247.672 362.523 247.568C362.331 247.463 362.175 247.304 362.074 247.11C361.973 246.916 361.932 246.697 361.957 246.48C361.981 246.263 362.07 246.058 362.211 245.891C362.353 245.725 362.541 245.604 362.751 245.545C363.027 245.469 363.322 245.503 363.573 245.64C363.825 245.777 364.013 246.007 364.099 246.28Z" fill="#C4DFD5"/>
<path opacity="0.25" d="M581.858 226.971C581.924 227.179 581.926 227.403 581.863 227.612C581.801 227.822 581.678 228.008 581.509 228.148C581.341 228.287 581.134 228.372 580.917 228.394C580.699 228.415 580.48 228.371 580.288 228.267C580.095 228.163 579.938 228.004 579.837 227.81C579.735 227.617 579.694 227.397 579.718 227.18C579.741 226.963 579.83 226.757 579.971 226.59C580.112 226.423 580.3 226.302 580.51 226.243C580.785 226.163 581.081 226.194 581.333 226.331C581.586 226.467 581.774 226.697 581.858 226.971Z" fill="#C4DFD5"/>
<path opacity="0.25" d="M473.609 236.989L539.991 341.436L455.177 348.711L473.609 236.989Z" stroke="#C4DFD5" stroke-width="0.25" stroke-miterlimit="10"/>
<path opacity="0.25" d="M608.604 365.397L624.859 280.232L539.991 341.436L608.604 365.397Z" stroke="#C4DFD5" stroke-width="0.25" stroke-miterlimit="10"/>
<path opacity="0.25" d="M473.609 236.989L439.131 311.529L455.177 348.711" stroke="#C4DFD5" stroke-width="0.25" stroke-miterlimit="10"/>
<path opacity="0.25" d="M624.859 280.232L580.813 227.288L539.991 341.436" stroke="#C4DFD5" stroke-width="0.25" stroke-miterlimit="10"/>
<path opacity="0.25" d="M317.984 396.525L277.269 441.709L278.409 354.873L363.047 246.597L374.711 354.199" stroke="#C4DFD5" stroke-width="0.25" stroke-miterlimit="10"/>
</g>
<path d="M643.385 393.754L564.262 441.426L604.269 315.749L726.615 281.743L744.508 357.307" stroke="#C4DFD5" stroke-width="0.25" stroke-miterlimit="10"/>
<path d="M512.719 203.731C512.53 203.101 512.532 202.428 512.725 201.798C512.918 201.169 513.293 200.611 513.803 200.194C514.314 199.778 514.936 199.522 515.591 199.459C516.246 199.396 516.906 199.529 517.486 199.841C518.066 200.152 518.54 200.629 518.85 201.21C519.159 201.792 519.289 202.451 519.223 203.107C519.158 203.762 518.899 204.383 518.481 204.891C518.062 205.4 517.503 205.772 516.872 205.963C516.453 206.089 516.013 206.132 515.577 206.088C515.142 206.045 514.719 205.916 514.333 205.708C513.947 205.501 513.606 205.22 513.329 204.88C513.052 204.541 512.845 204.151 512.719 203.731Z" fill="#C4DFD5"/>
<path d="M363.742 292.395C364.479 292.395 365.076 291.797 365.076 291.06C365.076 290.323 364.479 289.725 363.742 289.725C363.004 289.725 362.407 290.323 362.407 291.06C362.407 291.797 363.004 292.395 363.742 292.395Z" fill="#C4DFD5"/>
<path d="M434.479 305.313C434.36 304.929 434.359 304.518 434.475 304.133C434.591 303.748 434.818 303.407 435.129 303.152C435.44 302.897 435.82 302.741 436.22 302.703C436.62 302.664 437.022 302.746 437.375 302.938C437.729 303.129 438.017 303.422 438.203 303.778C438.39 304.134 438.466 304.537 438.422 304.937C438.378 305.336 438.216 305.714 437.957 306.021C437.698 306.328 437.353 306.551 436.967 306.661C436.458 306.806 435.913 306.746 435.448 306.494C434.983 306.242 434.635 305.818 434.479 305.313Z" fill="#C4DFD5"/>
<path d="M667.05 264.449L540.517 341.362L669.356 330.608L667.05 264.449Z" stroke="#C4DFD5" stroke-width="0.25" stroke-miterlimit="10"/>
<path d="M515.915 202.774L667.05 264.449L436.393 304.74L515.915 202.774Z" stroke="#C4DFD5" stroke-width="0.25" stroke-miterlimit="10"/>
<path d="M436.393 304.74L411.414 434.017L540.516 341.362L436.393 304.74Z" stroke="#C4DFD5" stroke-width="0.25" stroke-miterlimit="10"/>
<path d="M436.393 304.74L363.742 291.06L515.915 202.774L623.342 147.173L667.05 264.449" stroke="#C4DFD5" stroke-width="0.25" stroke-miterlimit="10"/>
</svg>
