<svg width="40" height="40" viewBox="0 0 40 40" fill="none" xmlns="http://www.w3.org/2000/svg">
<path d="M22.9463 18.3036C24.5735 19.9308 24.5735 22.569 22.9463 24.1962C21.3191 25.8234 18.6809 25.8234 17.0538 24.1962C15.4266 22.569 15.4266 19.9308 17.0538 18.3036C18.6809 16.6765 21.3191 16.6765 22.9463 18.3036Z" stroke="#12222F" stroke-width="1.5" stroke-linecap="round" stroke-linejoin="round"/>
<path d="M32.0896 8.30364C33.7168 9.93083 33.7168 12.569 32.0896 14.1962C30.4624 15.8234 27.8243 15.8234 26.1971 14.1962C24.5699 12.569 24.5699 9.93082 26.1971 8.30364C27.8243 6.67646 30.4624 6.67646 32.0896 8.30364" stroke="#12222F" stroke-width="1.5" stroke-linecap="round" stroke-linejoin="round"/>
<path d="M30 20.4165C32.555 20.4165 35 21.3048 36.6667 22.6382" stroke="#12222F" stroke-width="1.5" stroke-linecap="round" stroke-linejoin="round"/>
<path d="M13.8029 8.30364C15.4301 9.93083 15.4301 12.569 13.8029 14.1962C12.1758 15.8234 9.53757 15.8234 7.91039 14.1962C6.28321 12.569 6.28321 9.93082 7.91039 8.30364C9.53758 6.67646 12.1758 6.67646 13.8029 8.30364" stroke="#12222F" stroke-width="1.5" stroke-linecap="round" stroke-linejoin="round"/>
<path d="M3.33331 22.6382C4.99998 21.3048 7.44498 20.4165 9.99998 20.4165" stroke="#12222F" stroke-width="1.5" stroke-linecap="round" stroke-linejoin="round"/>
<path d="M27.6517 32.9165C25.71 31.4148 22.92 30.4165 20 30.4165C17.08 30.4165 14.29 31.4148 12.3483 32.9165" stroke="#12222F" stroke-width="1.5" stroke-linecap="round" stroke-linejoin="round"/>
</svg>
