<svg width="59" height="77" viewBox="0 0 59 77" fill="none" xmlns="http://www.w3.org/2000/svg">
<g opacity="0.5" clip-path="url(#clip0_8_50465)">
<path d="M35.3116 70.0909C34.7675 69.9645 34.2117 69.8953 33.6534 69.8844C32.8638 69.8129 31.8926 69.6779 31.3477 69.5905C31.8057 69.1855 32.2558 68.7964 32.6664 68.3358C32.769 68.2326 32.8717 68.1293 32.9664 68.0181L33.4797 67.4384C34.1934 66.5932 34.8403 65.6931 35.4142 64.7463C37.6625 61.053 38.6522 56.7232 38.2332 52.4133C37.8529 48.3882 36.2856 44.5692 33.7324 41.4462C32.5295 39.9112 30.963 38.7044 29.1763 37.9361C28.2873 37.5734 27.3325 37.4023 26.3736 37.4338C25.4148 37.4652 24.4731 37.6986 23.6095 38.1187C22.7389 38.526 21.994 39.1626 21.4539 39.9611C20.9159 40.7587 20.6398 41.7057 20.6642 42.6691C20.7044 43.5756 20.944 44.4618 21.366 45.2638C21.7879 46.0658 22.3816 46.7636 23.1042 47.3069C23.7956 47.8187 24.5836 48.1834 25.4199 48.3786C26.2562 48.5739 27.1232 48.5956 27.9682 48.4425C29.556 48.1784 31.043 47.4868 32.2716 46.4413C33.4236 45.451 34.3592 44.2316 35.0194 42.8597C35.6394 41.5799 36.0982 40.2274 36.3855 38.8334C36.9142 36.2891 37.1001 33.6848 36.9382 31.0905C36.8081 28.7941 36.4241 26.5195 35.7933 24.3086C35.6615 23.7951 35.5034 23.2888 35.3195 22.7918C35.1458 22.2994 34.9958 21.815 34.8141 21.3464C34.4114 20.4332 34.0798 19.5199 33.6376 18.7099C32.2649 15.9129 30.4844 13.338 28.3551 11.0702L27.7313 10.4111L27.1075 9.82343C26.7048 9.45812 26.3179 9.10076 25.9784 8.79898C25.1887 8.21926 24.6202 7.71895 24.0912 7.36953C23.5775 6.95348 23.0088 6.61136 22.4014 6.35303C22.3461 6.43244 22.4014 6.57539 22.8594 6.9804C23.0805 7.18688 23.4042 7.45688 23.8543 7.77454L25.5362 9.25959C27.5473 11.1681 29.321 13.3147 30.8187 15.6524C33.5206 19.9161 35.1794 24.7631 35.659 29.7961C35.8738 32.0379 35.8367 34.2969 35.5485 36.5304C35.3198 38.6632 34.7042 40.7358 33.7324 42.6453C32.8076 44.4729 31.273 45.9151 29.3974 46.7193C28.5397 47.1236 27.5938 47.3016 26.6488 47.2363C25.7038 47.171 24.791 46.8646 23.9964 46.346C23.2527 45.8396 22.6725 45.1254 22.3274 44.2914C21.9823 43.4575 21.8872 42.5402 22.054 41.6526C22.4646 39.9849 24.2017 38.897 25.9389 38.7143C27.7147 38.5776 29.4729 39.148 30.8345 40.3026C32.2242 41.4452 33.4006 42.8273 34.3088 44.3845C36.0653 47.3144 37.0189 50.66 37.0724 54.081C37.1184 57.1143 36.4272 60.113 35.0589 62.8165C34.4569 64.0237 33.729 65.163 32.8875 66.2154C32.6901 66.4696 32.4848 66.7158 32.2795 66.9461L32.1137 67.1366C32.011 67.2637 31.9005 67.3749 31.7978 67.4861C31.3793 67.9387 31.0082 68.3199 30.6292 68.6535C30.5806 67.9948 30.4776 67.3414 30.3212 66.6999C30.2283 66.2211 30.0548 65.7618 29.808 65.3419C29.6106 66.6363 29.6895 68.8202 29.5079 70.2894C30.2313 70.4629 30.9685 70.5719 31.711 70.615C32.9349 70.7105 34.1648 70.5315 35.3116 70.0909Z" fill="#7599A2"/>
</g>
<defs>
<clipPath id="clip0_8_50465">
<rect width="77" height="59" fill="white" transform="translate(59) rotate(90)"/>
</clipPath>
</defs>
</svg>
