<svg width="105" height="29" viewBox="0 0 105 29" fill="none" xmlns="http://www.w3.org/2000/svg">
<path d="M103.633 4.85555C103.428 5.7317 103.316 6.62649 103.298 7.52552C103.182 8.79693 102.963 10.3608 102.821 11.238C102.163 10.5006 101.532 9.77592 100.784 9.11478C100.616 8.9495 100.449 8.78422 100.268 8.63165L99.3272 7.80523C97.9551 6.65596 96.4939 5.61446 94.9568 4.69027C88.9613 1.07015 81.9323 -0.523363 74.9357 0.151319C68.4015 0.763667 62.2018 3.28726 57.132 7.39838C54.6402 9.33516 52.681 11.8575 51.4337 14.7344C50.845 16.1659 50.5673 17.7032 50.6183 19.2472C50.6694 20.7911 51.0482 22.3073 51.7303 23.6979C52.3915 25.0998 53.4249 26.2992 54.7212 27.1689C56.0159 28.0351 57.5533 28.4797 59.1173 28.4403C60.5888 28.3757 62.0275 27.9898 63.3295 27.3104C64.6314 26.631 65.7642 25.6751 66.6462 24.5116C67.477 23.3982 68.069 22.1295 68.386 20.7829C68.7029 19.4363 68.7382 18.0402 68.4897 16.6797C68.0609 14.1231 66.9382 11.7287 65.241 9.75049C63.6334 7.89561 61.6538 6.38914 59.4267 5.32597C57.3491 4.32778 55.1535 3.5889 52.8905 3.12643C48.7601 2.27514 44.5323 1.97579 40.3209 2.23644C36.593 2.44586 32.9003 3.06419 29.3112 4.07999C28.4776 4.29211 27.6557 4.54673 26.8489 4.84283C26.0496 5.12255 25.2632 5.36411 24.5025 5.65654C23.02 6.30496 21.5374 6.83895 20.2224 7.55094C15.6819 9.7612 11.5018 12.6281 7.82039 16.0567L6.75037 17.0611L5.79636 18.0655C5.20334 18.714 4.6232 19.3369 4.13331 19.8837C3.1922 21.1551 2.38001 22.0705 1.81276 22.9223C1.13736 23.7494 0.581973 24.6651 0.162598 25.6432C0.291517 25.7322 0.523571 25.6432 1.18106 24.9057C1.51625 24.5497 1.95457 24.0285 2.47025 23.3038L4.88104 20.5956C7.97932 17.3574 11.464 14.5013 15.259 12.0899C22.1806 7.73936 30.0491 5.06846 38.2195 4.29613C41.8589 3.95028 45.5261 4.00999 49.1519 4.47413C52.6142 4.84239 55.9787 5.83352 59.0786 7.39838C62.0456 8.88739 64.3867 11.3583 65.6922 14.3784C66.3487 15.7594 66.6375 17.2825 66.5315 18.8041C66.4255 20.3257 65.9281 21.7955 65.0863 23.0749C64.2641 24.2724 63.1047 25.2066 61.7509 25.7623C60.3971 26.3181 58.9081 26.4711 57.4672 26.2026C54.7599 25.5414 52.9937 22.7443 52.6971 19.9472C52.4752 17.0878 53.4011 14.2569 55.2755 12.0645C57.1304 9.82681 59.3741 7.93255 61.902 6.47025C66.6584 3.6419 72.0896 2.10651 77.643 2.0203C82.5672 1.94624 87.4352 3.05917 91.8241 5.2624C93.7838 6.23178 95.6334 7.40383 97.3418 8.75879C97.7544 9.07664 98.154 9.40721 98.5279 9.73778L98.8373 10.0048C99.0436 10.1701 99.2241 10.3481 99.4046 10.5133C100.139 11.1872 100.758 11.7848 101.3 12.395C100.23 12.4733 99.1696 12.6392 98.1283 12.8909C97.351 13.0405 96.6055 13.32 95.9237 13.7173C98.0251 14.0352 101.57 13.908 103.955 14.2004C104.237 13.0357 104.414 11.8486 104.484 10.6532C104.639 8.68236 104.348 6.70214 103.633 4.85555Z" fill="#00D58B"/>
</svg>
