<svg width="280" height="40" viewBox="0 0 280 40" fill="none" xmlns="http://www.w3.org/2000/svg">
<g opacity="0.8">
<path d="M25.4376 18.7662L19.9998 13.3286L14.5593 18.769L11.3952 15.6049L19.9998 7L28.6015 15.6021L25.4376 18.7662ZM34 21L30.8358 17.8358L27.6718 20.9998L30.836 24.1639L34 21ZM25.4376 23.2346L19.9998 28.6722L14.5594 23.2319L11.3937 26.3943L11.3952 26.396L19.9998 35.0008L28.6018 26.3989L28.6063 26.3945L25.4376 23.2346ZM12.3273 21.0017L9.16312 17.8375L5.99914 21.0015L9.16331 24.1657L12.3273 21.0017Z" fill="white"/>
<path d="M16.7907 20.9983H16.7893L20 17.7876L22.3728 20.1604H22.373L22.6455 20.4331L23.2078 20.9955L23.2123 20.9998L23.2078 21.0045L20 24.2124L16.7893 21.0017L16.7878 20.9998L16.7907 20.9983" fill="white"/>
</g>
<g opacity="0.8">
<g opacity="0.9">
<path opacity="0.9" d="M97.5411 25.8001H94.5221L96.4093 14.2071H99.4268L97.5411 25.8001ZM91.9786 14.2071L89.107 22.1876L88.7701 20.4638L87.7492 15.2513C87.7492 15.2513 87.6267 14.2071 86.3184 14.2071H81.5625L81.5071 14.404C82.6208 14.6822 83.6856 15.1288 84.6646 15.7282L87.2898 25.8001H90.4298L95.2324 14.2071H91.9786ZM115.722 25.8001H118.493L116.076 14.2071H113.651C112.531 14.2071 112.258 15.0705 112.258 15.0705L107.756 25.8001H110.903L111.532 24.0836H115.369L115.722 25.806V25.8001ZM112.397 21.699L113.982 17.3617L114.876 21.699H112.397ZM107.992 16.9956L108.43 14.5061C107.557 14.194 106.64 14.0232 105.714 14C104.216 14 100.661 14.6548 100.661 17.8386C100.661 20.8327 104.835 20.8692 104.835 22.4428C104.835 24.0165 101.085 23.7336 99.8541 22.7418L99.4064 25.3451C99.4064 25.3451 100.754 25.9999 102.813 25.9999C104.873 25.9999 107.979 24.9338 107.979 22.0301C107.979 19.017 103.767 18.737 103.767 17.4258C103.767 16.1147 106.707 16.2839 107.997 16.9956H107.992Z" fill="#E5E5E5"/>
</g>
<path d="M89 20L88.0161 15.0014C88.0161 15.0014 87.898 14 86.6371 14H82.0534L82 14.1888C83.5785 14.589 85.0512 15.3248 86.3167 16.3455C87.5205 17.3058 88.4465 18.5669 89 20V20Z" fill="white"/>
</g>
<g opacity="0.8">
<path opacity="0.9" d="M179.999 6.20264L188.467 20.2586L179.999 16.4053V6.20264Z" fill="#E5E5E5"/>
<path opacity="0.7" d="M171.527 20.2586L179.999 16.4053V6.20264L171.527 20.2586Z" fill="#E5E5E5"/>
<path d="M179.999 25.2626V16.4053L188.467 20.2586L179.999 25.2626Z" fill="white"/>
<path d="M171.527 20.2586L179.999 16.4053V25.2626L171.527 20.2586Z" fill="#E5E5E5"/>
<path d="M179.999 33.7972V26.8679L188.473 21.8625L179.999 33.7972Z" fill="white"/>
<path d="M171.527 21.8625L179.999 26.8679V33.7972L171.527 21.8625Z" fill="#E5E5E5"/>
</g>
<g opacity="0.8">
<path opacity="0.7" d="M264.133 27.4173H255.867V12.5813H264.133V27.4173Z" fill="#E5E5E5"/>
<path d="M256.4 20C256.399 18.5714 256.722 17.1612 257.346 15.876C257.969 14.5908 258.877 13.4641 260 12.5813C258.608 11.4872 256.936 10.8068 255.176 10.6178C253.415 10.4289 251.637 10.7391 250.045 11.5129C248.452 12.2867 247.11 13.493 246.17 14.9938C245.231 16.4946 244.733 18.2294 244.733 20C244.733 21.7705 245.231 23.5053 246.17 25.0061C247.11 26.5069 248.452 27.7132 250.045 28.487C251.637 29.2609 253.415 29.571 255.176 29.3821C256.936 29.1932 258.608 28.5128 260 27.4186C258.877 26.5359 257.969 25.4093 257.345 24.1241C256.722 22.8388 256.398 21.4286 256.4 20" fill="#E5E5E5"/>
<path d="M275.265 20C275.266 21.7705 274.768 23.5052 273.829 25.0061C272.889 26.5069 271.547 27.7132 269.955 28.487C268.362 29.2609 266.584 29.5711 264.824 29.3822C263.064 29.1932 261.392 28.5128 260 27.4187C261.123 26.5356 262.031 25.409 262.655 24.1239C263.28 22.8388 263.604 21.4287 263.604 20C263.604 18.5713 263.28 17.1612 262.655 15.8761C262.031 14.591 261.123 13.4644 260 12.5813C261.392 11.4872 263.064 10.8068 264.824 10.6178C266.584 10.4289 268.362 10.7391 269.955 11.513C271.547 12.2868 272.889 13.4931 273.829 14.9939C274.768 16.4948 275.266 18.2296 275.265 20Z" fill="white"/>
</g>
</svg>
