<svg id="f4f03997-d3fc-4445-9ca6-3de2d92c1b2e" data-name="Слой 2" xmlns="http://www.w3.org/2000/svg" xmlns:xlink="http://www.w3.org/1999/xlink" viewBox="0 0 250 250"><defs><style>.ba377479-3800-4dda-817e-9474bfbb3b55{fill:url(#b4a12e87-b125-4c62-9a7f-000e14790636);}.ba4c9e39-827d-4fab-812c-2817da910e72{fill:url(#fc673f29-c9f5-45f5-bf64-47cabfbc208f);}</style><linearGradient id="b4a12e87-b125-4c62-9a7f-000e14790636" x1="27.29" y1="130.9" x2="222.71" y2="130.9" gradientUnits="userSpaceOnUse"><stop offset="0" stop-color="#00bcb0"/><stop offset="1" stop-color="#00e092"/></linearGradient><linearGradient id="fc673f29-c9f5-45f5-bf64-47cabfbc208f" x1="97.2" y1="57.06" x2="213.01" y2="57.06" xlink:href="#b4a12e87-b125-4c62-9a7f-000e14790636"/></defs><path class="ba377479-3800-4dda-817e-9474bfbb3b55" d="M219.68,100.79h0a3.49,3.49,0,0,0-4.4-2.48l-12.83,3.89a81.59,81.59,0,0,0-37.39-47.34,3.51,3.51,0,0,0-4.75,1.25l-7.5,12.67A61.89,61.89,0,0,0,125,62.25,62.82,62.82,0,0,0,62.25,125a3.5,3.5,0,0,0,3.5,3.5h39l-8.91,8.91a3.47,3.47,0,0,0-1,2.47v20.21a3.49,3.49,0,0,0,3.49,3.49h53.46l13.58-.08a55.76,55.76,0,0,1-94.24-24.26,3.51,3.51,0,0,0-4.24-2.5l-14,3.54a73.8,73.8,0,0,1,90.33-86.79,3.5,3.5,0,1,0,1.72-6.78A80.81,80.81,0,0,0,88.47,53l-6-12a3.51,3.51,0,0,0-4.82-1.48,98.4,98.4,0,0,0-46.66,59,3.41,3.41,0,0,0,.31,2.65,3.48,3.48,0,0,0,2.1,1.66,3.4,3.4,0,0,0,.95.13,3.51,3.51,0,0,0,3.37-2.55A91.68,91.68,0,0,1,77.85,47.49l4.52,8.95a80.51,80.51,0,0,0-38,65.06H30.79a3.5,3.5,0,0,0-3.5,3.5A97.77,97.77,0,0,0,157,217.33a3.5,3.5,0,0,0,2.16-4.45,3.51,3.51,0,0,0-4.45-2.16,90.54,90.54,0,0,1-29.75,5c-48.38,0-88.8-39-90.65-87.21h10A80.57,80.57,0,0,0,46.78,145a2,2,0,0,0,.07.42,2.4,2.4,0,0,0,.14.4,81.37,81.37,0,0,0,38.3,49.52,3.44,3.44,0,0,0,2.65.33A3.49,3.49,0,0,0,90.05,194l7.21-12.73A62.75,62.75,0,0,0,175.67,162a3.5,3.5,0,0,0-2.85-5.57l-17.61.11V143.35a3.5,3.5,0,0,0-3.49-3.5H126.93l27.26-27.26a3.48,3.48,0,0,0,1-2.47V89.91a3.5,3.5,0,0,0-3.5-3.49H98.28a3.5,3.5,0,0,0-3.49,3.49v16.74a3.5,3.5,0,0,0,3.49,3.5h24.79L111.72,121.5H69.35a55.76,55.76,0,1,1,107.28,24.6,3.49,3.49,0,0,0,1.91,4.56,3.53,3.53,0,0,0,1.32.26,3.48,3.48,0,0,0,3.24-2.17,62.76,62.76,0,0,0-24.2-76.52l5.63-9.52a73.79,73.79,0,0,1-58.6,133.57,3.5,3.5,0,0,0-1.8,6.76,80.8,80.8,0,0,0,60.39-7.65l7.29,11.49a3.49,3.49,0,0,0,4.8,1.1,97.82,97.82,0,0,0,43.07-107.19Zm-4,24.21a90.48,90.48,0,0,1-39.89,75.15l-5.35-8.45A80.54,80.54,0,0,0,204.14,109l9.6-2.91A91.35,91.35,0,0,1,215.71,125Zm-81-19.69a3.49,3.49,0,0,0-3.23-2.16H101.78V93.41h46.44v15.26L116,140.88a3.5,3.5,0,0,0,2.47,6h29.73v9.74H101.78V141.33L134,109.12A3.47,3.47,0,0,0,134.74,105.31ZM91.17,177.84l-5.44,9.61a73.76,73.76,0,0,1-31.11-40.4l10.67-2.7A62.66,62.66,0,0,0,91.17,177.84Z"/><path class="ba4c9e39-827d-4fab-812c-2817da910e72" d="M101.59,37.33A90.91,90.91,0,0,1,206.38,84.87a3.47,3.47,0,0,0,3.13,1.95,4.38,4.38,0,0,0,1.55-.36,3.48,3.48,0,0,0,1.59-4.68A97.81,97.81,0,0,0,99.8,30.58a3.49,3.49,0,1,0,1.79,6.75Z"/></svg>